%FSLAX34Y34*%
%MOMM*%
%LNSOLDERMASK_BOTTOM*%
G71*
G01*
%ADD10C, 2.90*%
%ADD11C, 2.70*%
%ADD12C, 2.60*%
%ADD13C, 1.40*%
%ADD14C, 0.30*%
%ADD15R, 2.30X1.60*%
%ADD16R, 3.90X2.10*%
%ADD17R, 1.73X1.10*%
%ADD18R, 0.90X1.10*%
%ADD19R, 1.60X2.10*%
%ADD20R, 1.30X1.00*%
%ADD21C, 0.31*%
%ADD22R, 1.10X1.73*%
%LPD*%
X309398Y62647D02*
G54D10*
D03*
X112817Y187496D02*
G54D10*
D03*
X309667Y187496D02*
G54D10*
D03*
X112548Y62647D02*
G54D10*
D03*
X97310Y527600D02*
G54D11*
D03*
X127310Y527600D02*
G54D11*
D03*
X97310Y497600D02*
G54D11*
D03*
X127310Y497600D02*
G54D11*
D03*
X97310Y467600D02*
G54D11*
D03*
X127310Y467600D02*
G54D11*
D03*
X97310Y437600D02*
G54D11*
D03*
X127310Y437600D02*
G54D11*
D03*
X97310Y407600D02*
G54D11*
D03*
X127310Y407600D02*
G54D11*
D03*
X97310Y377600D02*
G54D11*
D03*
X127310Y377600D02*
G54D11*
D03*
X97310Y347600D02*
G54D11*
D03*
X127310Y347600D02*
G54D11*
D03*
X97310Y317600D02*
G54D11*
D03*
X127310Y317600D02*
G54D11*
D03*
X821887Y632913D02*
G54D10*
D03*
X821887Y382913D02*
G54D10*
D03*
X796487Y632913D02*
G54D10*
D03*
X796487Y382913D02*
G54D10*
D03*
X771087Y632913D02*
G54D10*
D03*
X771087Y382913D02*
G54D10*
D03*
X745687Y632913D02*
G54D10*
D03*
X745687Y382913D02*
G54D10*
D03*
X720287Y632913D02*
G54D10*
D03*
X720287Y382913D02*
G54D10*
D03*
X694887Y632913D02*
G54D10*
D03*
X694887Y382913D02*
G54D10*
D03*
X669487Y632913D02*
G54D10*
D03*
X669487Y382913D02*
G54D10*
D03*
X644087Y632913D02*
G54D10*
D03*
X644087Y382913D02*
G54D10*
D03*
X618687Y632913D02*
G54D10*
D03*
X618687Y382913D02*
G54D10*
D03*
X593287Y632913D02*
G54D10*
D03*
X593288Y382913D02*
G54D10*
D03*
X567887Y632913D02*
G54D10*
D03*
X567887Y382913D02*
G54D10*
D03*
X542487Y632913D02*
G54D10*
D03*
X542487Y382913D02*
G54D10*
D03*
X517087Y632913D02*
G54D10*
D03*
X517087Y382913D02*
G54D10*
D03*
X491687Y632913D02*
G54D10*
D03*
X491687Y382913D02*
G54D10*
D03*
X466287Y632913D02*
G54D10*
D03*
X466287Y382913D02*
G54D10*
D03*
X841022Y751306D02*
G54D12*
D03*
X841022Y725906D02*
G54D12*
D03*
X841022Y700506D02*
G54D12*
D03*
X841022Y776706D02*
G54D12*
D03*
X433213Y739453D02*
G54D12*
D03*
X433213Y690325D02*
G54D12*
D03*
X432499Y789296D02*
G54D12*
D03*
X1014976Y218174D02*
G54D12*
D03*
X989576Y218174D02*
G54D12*
D03*
X964176Y218174D02*
G54D12*
D03*
X1040376Y218174D02*
G54D12*
D03*
X1003124Y625983D02*
G54D12*
D03*
X953995Y625983D02*
G54D12*
D03*
X1052966Y626697D02*
G54D12*
D03*
X892500Y282900D02*
G54D11*
D03*
X892500Y257500D02*
G54D11*
D03*
X892500Y232100D02*
G54D11*
D03*
X892500Y206700D02*
G54D11*
D03*
X409900Y79700D02*
G54D13*
D03*
X409900Y92400D02*
G54D13*
D03*
X409900Y105100D02*
G54D13*
D03*
X409900Y149550D02*
G54D13*
D03*
X409900Y162250D02*
G54D13*
D03*
X409900Y174950D02*
G54D13*
D03*
G36*
X173092Y163046D02*
X173092Y151046D01*
X136092Y151046D01*
X136092Y163046D01*
X173092Y163046D01*
G37*
G54D14*
X173092Y163046D02*
X173092Y151046D01*
X136092Y151046D01*
X136092Y163046D01*
X173092Y163046D01*
G36*
X173092Y115046D02*
X173092Y103046D01*
X136092Y103046D01*
X136092Y115046D01*
X173092Y115046D01*
G37*
G54D14*
X173092Y115046D02*
X173092Y103046D01*
X136092Y103046D01*
X136092Y115046D01*
X173092Y115046D01*
X257500Y117800D02*
G54D15*
D03*
X257400Y155400D02*
G54D15*
D03*
X216932Y110726D02*
G54D16*
D03*
X216932Y156026D02*
G54D16*
D03*
G36*
X419650Y423552D02*
X410650Y423552D01*
X410650Y415552D01*
X419650Y415552D01*
X419650Y423552D01*
G37*
G54D14*
X419650Y423552D02*
X410650Y423552D01*
X410650Y415552D01*
X419650Y415552D01*
X419650Y423552D01*
G36*
X419650Y404552D02*
X410651Y404552D01*
X410651Y396552D01*
X419650Y396552D01*
X419650Y404552D01*
G37*
G54D14*
X419650Y404552D02*
X410651Y404552D01*
X410651Y396552D01*
X419650Y396552D01*
X419650Y404552D01*
G36*
X398651Y414052D02*
X389650Y414052D01*
X389651Y406052D01*
X398650Y406052D01*
X398651Y414052D01*
G37*
G54D14*
X398651Y414052D02*
X389650Y414052D01*
X389651Y406052D01*
X398650Y406052D01*
X398651Y414052D01*
X310798Y405270D02*
G54D17*
D03*
X310792Y383966D02*
G54D17*
D03*
X68450Y271010D02*
G54D16*
D03*
X68450Y225710D02*
G54D16*
D03*
G36*
X546000Y533844D02*
X546000Y531844D01*
X555000Y531844D01*
X555000Y533844D01*
X546000Y533844D01*
G37*
G54D14*
X546000Y533844D02*
X546000Y531844D01*
X555000Y531844D01*
X555000Y533844D01*
X546000Y533844D01*
G36*
X546000Y528844D02*
X546000Y526844D01*
X555000Y526844D01*
X555000Y528844D01*
X546000Y528844D01*
G37*
G54D14*
X546000Y528844D02*
X546000Y526844D01*
X555000Y526844D01*
X555000Y528844D01*
X546000Y528844D01*
G36*
X546000Y523844D02*
X546000Y521844D01*
X555000Y521844D01*
X555000Y523844D01*
X546000Y523844D01*
G37*
G54D14*
X546000Y523844D02*
X546000Y521844D01*
X555000Y521844D01*
X555000Y523844D01*
X546000Y523844D01*
G36*
X546000Y518844D02*
X546000Y516844D01*
X555000Y516844D01*
X555000Y518844D01*
X546000Y518844D01*
G37*
G54D14*
X546000Y518844D02*
X546000Y516844D01*
X555000Y516844D01*
X555000Y518844D01*
X546000Y518844D01*
G36*
X546000Y513844D02*
X546000Y511844D01*
X555000Y511844D01*
X555000Y513844D01*
X546000Y513844D01*
G37*
G54D14*
X546000Y513844D02*
X546000Y511844D01*
X555000Y511844D01*
X555000Y513844D01*
X546000Y513844D01*
G36*
X590000Y513844D02*
X590000Y511844D01*
X599000Y511844D01*
X599000Y513844D01*
X590000Y513844D01*
G37*
G54D14*
X590000Y513844D02*
X590000Y511844D01*
X599000Y511844D01*
X599000Y513844D01*
X590000Y513844D01*
G36*
X590000Y518844D02*
X590000Y516844D01*
X599000Y516844D01*
X599000Y518844D01*
X590000Y518844D01*
G37*
G54D14*
X590000Y518844D02*
X590000Y516844D01*
X599000Y516844D01*
X599000Y518844D01*
X590000Y518844D01*
G36*
X590000Y523844D02*
X590000Y521844D01*
X599000Y521844D01*
X599000Y523844D01*
X590000Y523844D01*
G37*
G54D14*
X590000Y523844D02*
X590000Y521844D01*
X599000Y521844D01*
X599000Y523844D01*
X590000Y523844D01*
G36*
X590000Y528844D02*
X590000Y526844D01*
X599000Y526844D01*
X599000Y528844D01*
X590000Y528844D01*
G37*
G54D14*
X590000Y528844D02*
X590000Y526844D01*
X599000Y526844D01*
X599000Y528844D01*
X590000Y528844D01*
G36*
X590000Y533844D02*
X590000Y531844D01*
X599000Y531844D01*
X599000Y533844D01*
X590000Y533844D01*
G37*
G54D14*
X590000Y533844D02*
X590000Y531844D01*
X599000Y531844D01*
X599000Y533844D01*
X590000Y533844D01*
X559116Y549740D02*
G54D18*
D03*
X543216Y549740D02*
G54D18*
D03*
X587780Y577879D02*
G54D18*
D03*
X571880Y577879D02*
G54D18*
D03*
G36*
X239982Y417868D02*
X247982Y417868D01*
X247982Y403568D01*
X239982Y403568D01*
X239982Y417868D01*
G37*
G54D14*
X239982Y417868D02*
X247982Y417868D01*
X247982Y403568D01*
X239982Y403568D01*
X239982Y417868D01*
G36*
X261284Y417874D02*
X269284Y417875D01*
X269285Y403575D01*
X261285Y403574D01*
X261284Y417874D01*
G37*
G54D14*
X261284Y417874D02*
X269284Y417875D01*
X269285Y403575D01*
X261285Y403574D01*
X261284Y417874D01*
X295600Y435300D02*
G54D19*
D03*
X328100Y435400D02*
G54D19*
D03*
X408115Y437354D02*
G54D20*
D03*
X408115Y456354D02*
G54D20*
D03*
X384315Y437354D02*
G54D20*
D03*
X384315Y456354D02*
G54D20*
D03*
X384315Y446854D02*
G54D20*
D03*
X618850Y538400D02*
G54D17*
D03*
X618884Y559700D02*
G54D17*
D03*
X544164Y434689D02*
G54D17*
D03*
X544170Y413386D02*
G54D17*
D03*
G36*
X370300Y523339D02*
X361300Y523339D01*
X361300Y515339D01*
X370300Y515339D01*
X370300Y523339D01*
G37*
G54D14*
X370300Y523339D02*
X361300Y523339D01*
X361300Y515339D01*
X370300Y515339D01*
X370300Y523339D01*
G36*
X370300Y504339D02*
X361300Y504339D01*
X361300Y496339D01*
X370300Y496339D01*
X370300Y504339D01*
G37*
G54D14*
X370300Y504339D02*
X361300Y504339D01*
X361300Y496339D01*
X370300Y496339D01*
X370300Y504339D01*
G36*
X349300Y513839D02*
X340300Y513839D01*
X340300Y505839D01*
X349300Y505839D01*
X349300Y513839D01*
G37*
G54D14*
X349300Y513839D02*
X340300Y513839D01*
X340300Y505839D01*
X349300Y505839D01*
X349300Y513839D01*
G36*
X247150Y563100D02*
X255150Y563100D01*
X255150Y548800D01*
X247150Y548800D01*
X247150Y563100D01*
G37*
G54D14*
X247150Y563100D02*
X255150Y563100D01*
X255150Y548800D01*
X247150Y548800D01*
X247150Y563100D01*
G36*
X268453Y563106D02*
X276453Y563106D01*
X276453Y548806D01*
X268453Y548806D01*
X268453Y563106D01*
G37*
G54D14*
X268453Y563106D02*
X276453Y563106D01*
X276453Y548806D01*
X268453Y548806D01*
X268453Y563106D01*
G36*
X297132Y563918D02*
X305132Y563918D01*
X305132Y549618D01*
X297132Y549618D01*
X297132Y563918D01*
G37*
G54D14*
X297132Y563918D02*
X305132Y563918D01*
X305132Y549618D01*
X297132Y549618D01*
X297132Y563918D01*
G36*
X318434Y563924D02*
X326434Y563925D01*
X326435Y549625D01*
X318435Y549624D01*
X318434Y563924D01*
G37*
G54D14*
X318434Y563924D02*
X326434Y563925D01*
X326435Y549625D01*
X318435Y549624D01*
X318434Y563924D01*
X343833Y527006D02*
G54D17*
D03*
X343827Y548308D02*
G54D17*
D03*
X296714Y510969D02*
G54D17*
D03*
X296748Y532268D02*
G54D17*
D03*
G36*
X408400Y561439D02*
X399400Y561439D01*
X399400Y553439D01*
X408400Y553439D01*
X408400Y561439D01*
G37*
G54D14*
X408400Y561439D02*
X399400Y561439D01*
X399400Y553439D01*
X408400Y553439D01*
X408400Y561439D01*
G36*
X408400Y542439D02*
X399400Y542439D01*
X399400Y534439D01*
X408400Y534439D01*
X408400Y542439D01*
G37*
G54D14*
X408400Y542439D02*
X399400Y542439D01*
X399400Y534439D01*
X408400Y534439D01*
X408400Y542439D01*
G54D21*
X408400Y534439D02*
X408400Y542439D01*
X399400Y542439D01*
X399400Y534439D01*
X408400Y534439D01*
G36*
X387400Y551939D02*
X378400Y551939D01*
X378400Y543939D01*
X387400Y543939D01*
X387400Y551939D01*
G37*
G54D14*
X387400Y551939D02*
X378400Y551939D01*
X378400Y543939D01*
X387400Y543939D01*
X387400Y551939D01*
X406272Y589588D02*
G54D22*
D03*
X384969Y589582D02*
G54D22*
D03*
X594454Y545794D02*
G54D18*
D03*
X578554Y545794D02*
G54D18*
D03*
X243493Y435902D02*
G54D22*
D03*
X264793Y435868D02*
G54D22*
D03*
M02*
