%FSLAX34Y34*%
%MOMM*%
%LNSILK_TOP*%
G71*
G01*
%ADD10C, 0.33*%
%ADD11C, 0.50*%
%ADD12C, 0.11*%
%ADD13C, 0.14*%
%ADD14C, 0.16*%
%ADD15C, 0.70*%
%ADD16C, 0.60*%
%ADD17C, 0.00*%
%ADD18C, 0.17*%
%ADD19C, 0.30*%
%ADD20C, 0.22*%
%LPD*%
G54D10*
X60492Y195604D02*
X60492Y179604D01*
G54D10*
X60794Y78536D02*
X60794Y62536D01*
G54D10*
X54128Y70536D02*
X67461Y70536D01*
G54D11*
X910787Y649613D02*
X910787Y367038D01*
X396437Y367038D01*
X396437Y649613D01*
X910787Y649613D01*
G54D11*
G75*
G01X910787Y395613D02*
G03X910787Y395613I-25400J0D01*
G01*
G54D11*
G75*
G01X910787Y624213D02*
G03X910787Y624213I-25400J0D01*
G01*
G54D11*
G75*
G01X453587Y624213D02*
G03X453587Y624213I-25400J0D01*
G01*
G54D11*
G75*
G01X453587Y395613D02*
G03X453587Y395613I-25400J0D01*
G01*
G54D12*
X834587Y399424D02*
X831254Y408313D01*
X827921Y399424D01*
G54D12*
X825476Y408313D02*
X825476Y399424D01*
G54D12*
X823032Y408313D02*
X823032Y399424D01*
X817699Y408313D01*
X817699Y399424D01*
G54D12*
X806520Y403868D02*
X803854Y403868D01*
X803854Y406646D01*
X804521Y407758D01*
X805854Y408313D01*
X807187Y408313D01*
X808521Y407757D01*
X809187Y406646D01*
X809187Y401090D01*
X808521Y399980D01*
X807187Y399424D01*
X805854Y399424D01*
X804521Y399980D01*
X803854Y401091D01*
G54D12*
X801410Y408313D02*
X801410Y399424D01*
X796077Y408313D01*
X796077Y399424D01*
G54D12*
X790300Y408313D02*
X793633Y408313D01*
X793633Y399424D01*
X790300Y399424D01*
X788967Y399980D01*
X788300Y401091D01*
X788300Y406646D01*
X788967Y407758D01*
X790300Y408313D01*
G54D12*
X780454Y408313D02*
X783787Y408313D01*
X783787Y399424D01*
X780454Y399424D01*
X779121Y399980D01*
X778454Y401090D01*
X778454Y406646D01*
X779121Y407758D01*
X780454Y408313D01*
G54D12*
X776010Y402758D02*
X772677Y399424D01*
X772677Y408313D01*
G54D12*
X770233Y401091D02*
X769567Y399980D01*
X768233Y399424D01*
X766900Y399424D01*
X765567Y399980D01*
X764900Y401090D01*
X764900Y402202D01*
X765567Y403313D01*
X766900Y403868D01*
X765567Y404424D01*
X764900Y405535D01*
X764900Y406646D01*
X765567Y407758D01*
X766900Y408313D01*
X768233Y408313D01*
X769567Y407757D01*
X770233Y406646D01*
G54D12*
X755054Y408313D02*
X758387Y408313D01*
X758387Y399424D01*
X755054Y399424D01*
X753721Y399980D01*
X753054Y401090D01*
X753054Y406646D01*
X753721Y407758D01*
X755054Y408313D01*
G54D12*
X750610Y402758D02*
X747277Y399424D01*
X747277Y408313D01*
G54D12*
X739500Y408313D02*
X744833Y408313D01*
X744833Y407758D01*
X744167Y406646D01*
X740167Y403313D01*
X739500Y402202D01*
X739500Y401090D01*
X740167Y399980D01*
X741500Y399424D01*
X742833Y399424D01*
X744167Y399980D01*
X744833Y401090D01*
G54D12*
X729654Y408313D02*
X732987Y408313D01*
X732987Y399424D01*
X729654Y399424D01*
X728321Y399980D01*
X727654Y401090D01*
X727654Y406646D01*
X728321Y407758D01*
X729654Y408313D01*
G54D12*
X725210Y402757D02*
X721877Y399424D01*
X721877Y408313D01*
G54D12*
X715433Y408313D02*
X715433Y399424D01*
X719434Y404980D01*
X719433Y406090D01*
X714100Y406091D01*
G54D12*
X704254Y408313D02*
X707587Y408313D01*
X707587Y399424D01*
X704254Y399424D01*
X702921Y399980D01*
X702254Y401090D01*
X702254Y406646D01*
X702920Y407757D01*
X704254Y408313D01*
G54D12*
X694477Y408313D02*
X699810Y408313D01*
X699810Y407757D01*
X699144Y406646D01*
X695144Y403313D01*
X694477Y402202D01*
X694477Y401091D01*
X695144Y399980D01*
X696477Y399424D01*
X697810Y399424D01*
X699144Y399980D01*
X699810Y401091D01*
G54D12*
X692033Y399424D02*
X686700Y399424D01*
X687367Y400535D01*
X688700Y402202D01*
X690034Y404424D01*
X690700Y406091D01*
X690700Y408313D01*
G54D12*
X678854Y408313D02*
X682187Y408313D01*
X682187Y399424D01*
X678854Y399424D01*
X677521Y399980D01*
X676854Y401091D01*
X676854Y406646D01*
X677521Y407758D01*
X678854Y408313D01*
G54D12*
X669077Y408313D02*
X674410Y408313D01*
X674410Y407757D01*
X673744Y406646D01*
X669744Y403313D01*
X669077Y402202D01*
X669077Y401091D01*
X669744Y399980D01*
X671077Y399424D01*
X672410Y399424D01*
X673744Y399980D01*
X674410Y401091D01*
G54D12*
X661300Y401090D02*
X661967Y399980D01*
X663300Y399424D01*
X664633Y399424D01*
X665967Y399980D01*
X666633Y401090D01*
X666633Y403868D01*
X666633Y404424D01*
X664633Y403313D01*
X663300Y403313D01*
X661967Y403868D01*
X661300Y404980D01*
X661300Y406646D01*
X661967Y407758D01*
X663300Y408313D01*
X664633Y408313D01*
X665967Y407758D01*
X666633Y406646D01*
X666633Y403868D01*
G54D12*
X653454Y408313D02*
X656787Y408313D01*
X656787Y399424D01*
X653454Y399424D01*
X652121Y399980D01*
X651454Y401091D01*
X651454Y406646D01*
X652120Y407758D01*
X653454Y408313D01*
G54D12*
X643677Y408313D02*
X649010Y408313D01*
X649010Y407758D01*
X648344Y406646D01*
X644344Y403313D01*
X643677Y402202D01*
X643677Y401090D01*
X644344Y399980D01*
X645677Y399424D01*
X647010Y399424D01*
X648343Y399980D01*
X649010Y401091D01*
G54D12*
X635900Y399424D02*
X641233Y399424D01*
X641233Y403313D01*
X640566Y403313D01*
X639233Y402758D01*
X637900Y402758D01*
X636566Y403313D01*
X635900Y404424D01*
X635900Y406646D01*
X636566Y407758D01*
X637900Y408313D01*
X639233Y408313D01*
X640566Y407757D01*
X641233Y406646D01*
G54D12*
X628054Y408313D02*
X631387Y408313D01*
X631387Y399424D01*
X628054Y399424D01*
X626721Y399980D01*
X626054Y401091D01*
X626054Y406646D01*
X626720Y407757D01*
X628054Y408313D01*
G54D12*
X623610Y401090D02*
X622944Y399980D01*
X621610Y399424D01*
X620277Y399424D01*
X618944Y399980D01*
X618277Y401091D01*
X618277Y402202D01*
X618944Y403313D01*
X620277Y403868D01*
X618944Y404424D01*
X618277Y405535D01*
X618277Y406646D01*
X618944Y407758D01*
X620277Y408313D01*
X621610Y408313D01*
X622944Y407757D01*
X623610Y406646D01*
G54D12*
X615833Y401090D02*
X615166Y399980D01*
X613833Y399424D01*
X612500Y399424D01*
X611167Y399980D01*
X610500Y401090D01*
X610500Y402202D01*
X611167Y403313D01*
X612500Y403868D01*
X611167Y404424D01*
X610500Y405535D01*
X610500Y406646D01*
X611166Y407757D01*
X612500Y408313D01*
X613833Y408313D01*
X615167Y407758D01*
X615833Y406646D01*
G54D12*
X602654Y408313D02*
X605988Y408313D01*
X605987Y399424D01*
X602654Y399424D01*
X601321Y399980D01*
X600654Y401090D01*
X600654Y406646D01*
X601321Y407758D01*
X602654Y408313D01*
G54D12*
X598210Y401091D02*
X597544Y399980D01*
X596210Y399424D01*
X594877Y399424D01*
X593544Y399980D01*
X592877Y401090D01*
X592877Y402202D01*
X593544Y403313D01*
X594877Y403868D01*
X593544Y404424D01*
X592877Y405536D01*
X592877Y406646D01*
X593544Y407758D01*
X594877Y408313D01*
X596210Y408313D01*
X597544Y407758D01*
X598210Y406646D01*
G54D12*
X585100Y408313D02*
X590433Y408313D01*
X590433Y407758D01*
X589767Y406646D01*
X585767Y403313D01*
X585100Y402202D01*
X585100Y401091D01*
X585767Y399980D01*
X587100Y399424D01*
X588433Y399424D01*
X589767Y399980D01*
X590433Y401090D01*
G54D12*
X577254Y408313D02*
X580587Y408313D01*
X580587Y399424D01*
X577254Y399424D01*
X575921Y399980D01*
X575254Y401091D01*
X575254Y406646D01*
X575921Y407758D01*
X577254Y408313D01*
G54D12*
X572810Y401090D02*
X572144Y399980D01*
X570810Y399424D01*
X569477Y399424D01*
X568144Y399980D01*
X567477Y401090D01*
X567477Y402202D01*
X568144Y403313D01*
X569477Y403869D01*
X568144Y404424D01*
X567477Y405535D01*
X567477Y406646D01*
X568144Y407758D01*
X569477Y408313D01*
X570810Y408313D01*
X572144Y407758D01*
X572810Y406646D01*
G54D12*
X559700Y399424D02*
X565033Y399424D01*
X565033Y403313D01*
X564367Y403313D01*
X563034Y402758D01*
X561700Y402758D01*
X560367Y403313D01*
X559700Y404424D01*
X559700Y406646D01*
X560367Y407757D01*
X561700Y408313D01*
X563033Y408313D01*
X564367Y407758D01*
X565033Y406646D01*
G54D12*
X551854Y408313D02*
X555187Y408313D01*
X555187Y399424D01*
X551854Y399424D01*
X550520Y399980D01*
X549854Y401091D01*
X549854Y406646D01*
X550521Y407758D01*
X551854Y408313D01*
G54D12*
X547410Y401090D02*
X546744Y399980D01*
X545410Y399424D01*
X544077Y399424D01*
X542744Y399980D01*
X542077Y401090D01*
X542077Y402202D01*
X542744Y403313D01*
X544077Y403869D01*
X542744Y404424D01*
X542077Y405535D01*
X542077Y406646D01*
X542744Y407757D01*
X544077Y408313D01*
X545410Y408313D01*
X546744Y407758D01*
X547410Y406646D01*
G54D12*
X535633Y408313D02*
X535633Y399424D01*
X539633Y404980D01*
X539633Y406091D01*
X534300Y406091D01*
G54D12*
X523437Y399424D02*
X520104Y408313D01*
X516771Y399424D01*
G54D12*
X514326Y408313D02*
X514326Y399424D01*
X508993Y408313D01*
X508993Y399424D01*
G54D12*
X498037Y399424D02*
X494704Y408313D01*
X491371Y399424D01*
G54D12*
X488926Y408313D02*
X488926Y399424D01*
X485593Y399424D01*
X484260Y399980D01*
X483593Y401091D01*
X483593Y402202D01*
X484260Y403313D01*
X485593Y403868D01*
X488926Y403869D01*
G54D12*
X467971Y408313D02*
X472637Y408313D01*
X472637Y399424D01*
X467971Y399424D01*
G54D12*
X472637Y403868D02*
X467971Y403868D01*
G54D12*
X465526Y408313D02*
X465526Y399424D01*
X460193Y408313D01*
X460193Y399424D01*
G54D12*
X834587Y610641D02*
X833921Y609530D01*
X832587Y608974D01*
X831254Y608974D01*
X829921Y609530D01*
X829254Y610641D01*
X829254Y611752D01*
X829920Y612863D01*
X831254Y613419D01*
X829921Y613974D01*
X829254Y615085D01*
X829254Y616196D01*
X829920Y617308D01*
X831254Y617863D01*
X832587Y617863D01*
X833921Y617307D01*
X834587Y616196D01*
G54D12*
X826810Y608974D02*
X823477Y617863D01*
X820144Y608974D01*
G54D12*
X817699Y610640D02*
X817033Y609530D01*
X815699Y608974D01*
X814366Y608974D01*
X813033Y609530D01*
X812366Y610641D01*
X812366Y611752D01*
X813033Y612863D01*
X814366Y613418D01*
X813033Y613974D01*
X812366Y615085D01*
X812366Y616196D01*
X813033Y617307D01*
X814366Y617863D01*
X815699Y617863D01*
X817033Y617308D01*
X817699Y616196D01*
G54D12*
X806521Y613418D02*
X803854Y613419D01*
X803854Y616196D01*
X804520Y617308D01*
X805854Y617863D01*
X807187Y617863D01*
X808521Y617308D01*
X809187Y616196D01*
X809187Y610641D01*
X808521Y609530D01*
X807187Y608974D01*
X805854Y608974D01*
X804521Y609530D01*
X803854Y610641D01*
G54D12*
X801410Y617863D02*
X801410Y608974D01*
X796077Y617863D01*
X796077Y608974D01*
G54D12*
X790300Y617863D02*
X793633Y617863D01*
X793633Y608974D01*
X790300Y608974D01*
X788967Y609530D01*
X788300Y610641D01*
X788300Y616196D01*
X788966Y617308D01*
X790300Y617863D01*
G54D12*
X780454Y617863D02*
X783787Y617863D01*
X783787Y608974D01*
X780454Y608974D01*
X779121Y609530D01*
X778454Y610641D01*
X778454Y616196D01*
X779121Y617308D01*
X780454Y617863D01*
G54D12*
X776010Y612308D02*
X772677Y608974D01*
X772677Y617863D01*
G54D12*
X764900Y608974D02*
X770233Y608974D01*
X770233Y612863D01*
X769567Y612863D01*
X768233Y612308D01*
X766900Y612307D01*
X765567Y612863D01*
X764900Y613974D01*
X764900Y616196D01*
X765567Y617308D01*
X766900Y617863D01*
X768233Y617863D01*
X769566Y617308D01*
X770233Y616196D01*
G54D12*
X755054Y617863D02*
X758387Y617863D01*
X758387Y608974D01*
X755054Y608974D01*
X753721Y609530D01*
X753054Y610641D01*
X753054Y616196D01*
X753721Y617308D01*
X755054Y617863D01*
G54D12*
X745277Y617863D02*
X750610Y617863D01*
X750610Y617308D01*
X749944Y616196D01*
X745944Y612863D01*
X745277Y611752D01*
X745277Y610641D01*
X745944Y609530D01*
X747277Y608974D01*
X748610Y608974D01*
X749944Y609530D01*
X750610Y610641D01*
G54D12*
X729654Y617863D02*
X732987Y617863D01*
X732987Y608974D01*
X729654Y608974D01*
X728321Y609530D01*
X727654Y610641D01*
X727654Y616196D01*
X728321Y617308D01*
X729654Y617863D01*
G54D12*
X721210Y617863D02*
X721210Y608974D01*
X725210Y614530D01*
X725210Y615641D01*
X719877Y615641D01*
G54D12*
X704921Y613418D02*
X702921Y614530D01*
X702254Y615641D01*
X702254Y617863D01*
G54D12*
X707587Y617863D02*
X707587Y608974D01*
X704254Y608974D01*
X702921Y609530D01*
X702254Y610641D01*
X702254Y611752D01*
X702921Y612863D01*
X704254Y613418D01*
X707587Y613418D01*
G54D12*
X699810Y608974D02*
X693144Y617863D01*
G54D12*
X699810Y617863D02*
X693144Y608974D01*
G54D12*
X685366Y617863D02*
X690699Y617863D01*
X690699Y617308D01*
X690033Y616196D01*
X686033Y612863D01*
X685366Y611752D01*
X685366Y610641D01*
X686033Y609530D01*
X687366Y608974D01*
X688700Y608974D01*
X690033Y609530D01*
X690699Y610641D01*
G54D12*
X679521Y617863D02*
X679521Y608974D01*
G54D12*
X682187Y608974D02*
X676854Y608974D01*
G54D12*
X674410Y608974D02*
X667744Y617863D01*
G54D12*
X674410Y617863D02*
X667744Y608974D01*
G54D12*
X659966Y617863D02*
X665299Y617863D01*
X665299Y617308D01*
X664633Y616196D01*
X660633Y612863D01*
X659966Y611752D01*
X659966Y610641D01*
X660633Y609530D01*
X661966Y608974D01*
X663299Y608974D01*
X664633Y609530D01*
X665299Y610641D01*
G54D12*
X647104Y617863D02*
X650437Y617863D01*
X650437Y608974D01*
X647104Y608974D01*
X645770Y609530D01*
X645104Y610641D01*
X645104Y616196D01*
X645770Y617308D01*
X647104Y617863D01*
G54D12*
X637327Y608974D02*
X642660Y608974D01*
X642660Y612863D01*
X641994Y612863D01*
X640660Y612308D01*
X639327Y612308D01*
X637994Y612863D01*
X637327Y613974D01*
X637327Y616196D01*
X637993Y617308D01*
X639327Y617863D01*
X640660Y617863D01*
X641994Y617308D01*
X642660Y616196D01*
G54D12*
X628054Y617863D02*
X631387Y617863D01*
X631387Y608974D01*
X628054Y608974D01*
X626721Y609530D01*
X626054Y610641D01*
X626054Y616196D01*
X626720Y617308D01*
X628054Y617863D01*
G54D12*
X623610Y612308D02*
X620277Y608974D01*
X620277Y617863D01*
G54D12*
X613167Y612863D02*
X614500Y613418D01*
X615833Y613418D01*
X617167Y612863D01*
X617833Y611752D01*
X617833Y610641D01*
X617167Y609530D01*
X615833Y608974D01*
X614500Y608974D01*
X613167Y609530D01*
X612500Y610641D01*
X612500Y611752D01*
X613167Y612863D01*
G54D12*
X614500Y613418D02*
X613167Y613974D01*
X612500Y615085D01*
X612500Y616196D01*
X613166Y617308D01*
X614500Y617863D01*
X615833Y617863D01*
X617167Y617308D01*
X617833Y616196D01*
X617833Y615085D01*
X617167Y613974D01*
X615833Y613418D01*
G54D12*
X602654Y617863D02*
X605988Y617863D01*
X605987Y608974D01*
X602654Y608974D01*
X601321Y609530D01*
X600654Y610641D01*
X600654Y616196D01*
X601321Y617308D01*
X602654Y617863D01*
G54D12*
X598210Y612308D02*
X594877Y608974D01*
X594877Y617863D01*
G54D12*
X592433Y616196D02*
X591767Y617307D01*
X590433Y617863D01*
X589100Y617863D01*
X587767Y617308D01*
X587100Y616196D01*
X587100Y613419D01*
X587100Y612863D01*
X589100Y613974D01*
X590433Y613974D01*
X591767Y613418D01*
X592434Y612308D01*
X592433Y610641D01*
X591767Y609530D01*
X590433Y608974D01*
X589100Y608974D01*
X587767Y609530D01*
X587100Y610641D01*
X587100Y613419D01*
G54D12*
X577254Y617863D02*
X580587Y617863D01*
X580587Y608974D01*
X577254Y608974D01*
X575921Y609530D01*
X575254Y610641D01*
X575254Y616196D01*
X575921Y617308D01*
X577254Y617863D01*
G54D12*
X567477Y617863D02*
X572810Y617863D01*
X572810Y617308D01*
X572144Y616196D01*
X568144Y612863D01*
X567477Y611752D01*
X567477Y610641D01*
X568144Y609530D01*
X569477Y608974D01*
X570810Y608974D01*
X572144Y609530D01*
X572810Y610641D01*
G54D12*
X565033Y612308D02*
X561700Y608974D01*
X561700Y617863D01*
G54D12*
X552521Y613418D02*
X550520Y614530D01*
X549854Y615640D01*
X549854Y617863D01*
G54D12*
X555187Y617863D02*
X555187Y608974D01*
X551854Y608974D01*
X550521Y609530D01*
X549854Y610641D01*
X549854Y611752D01*
X550521Y612863D01*
X551854Y613418D01*
X555187Y613418D01*
G54D12*
X547410Y608974D02*
X540744Y617863D01*
G54D12*
X547410Y617863D02*
X540744Y608974D01*
G54D12*
X533633Y609530D02*
X532966Y610641D01*
X532966Y616196D01*
X533633Y617308D01*
X534966Y617863D01*
X536299Y617863D01*
X537633Y617308D01*
X538299Y616196D01*
X538299Y610641D01*
X537633Y609530D01*
X536299Y608974D01*
X534966Y608974D01*
X533633Y609530D01*
G54D12*
X527121Y617863D02*
X527121Y608974D01*
G54D12*
X529787Y608974D02*
X524454Y608974D01*
G54D12*
X522010Y608974D02*
X515344Y617863D01*
G54D12*
X522010Y617863D02*
X515344Y608974D01*
G54D12*
X508233Y609530D02*
X507566Y610641D01*
X507566Y616196D01*
X508233Y617308D01*
X509566Y617863D01*
X510899Y617863D01*
X512233Y617308D01*
X512899Y616196D01*
X512899Y610641D01*
X512232Y609530D01*
X510899Y608974D01*
X509566Y608974D01*
X508233Y609530D01*
G54D12*
X501054Y617863D02*
X504387Y617863D01*
X504387Y608974D01*
X501054Y608974D01*
X499721Y609530D01*
X499054Y610641D01*
X499054Y616196D01*
X499721Y617308D01*
X501054Y617863D01*
G54D12*
X491277Y617863D02*
X496610Y617863D01*
X496610Y617308D01*
X495944Y616196D01*
X491944Y612863D01*
X491277Y611752D01*
X491277Y610641D01*
X491944Y609530D01*
X493277Y608974D01*
X494610Y608974D01*
X495944Y609530D01*
X496610Y610641D01*
G54D12*
X483500Y617863D02*
X488833Y617863D01*
X488833Y617308D01*
X488167Y616196D01*
X484167Y612863D01*
X483500Y611752D01*
X483500Y610641D01*
X484167Y609530D01*
X485500Y608974D01*
X486833Y608974D01*
X488167Y609530D01*
X488833Y610641D01*
G54D12*
X475654Y617863D02*
X478987Y617863D01*
X478987Y608974D01*
X475654Y608974D01*
X474321Y609530D01*
X473654Y610641D01*
X473654Y616196D01*
X474321Y617308D01*
X475654Y617863D01*
G54D12*
X465877Y617863D02*
X471210Y617863D01*
X471210Y617308D01*
X470544Y616196D01*
X466544Y612863D01*
X465877Y611752D01*
X465877Y610641D01*
X466544Y609530D01*
X467877Y608974D01*
X469210Y608974D01*
X470544Y609530D01*
X471210Y610641D01*
G54D12*
X463433Y610641D02*
X462767Y609530D01*
X461433Y608974D01*
X460100Y608974D01*
X458767Y609530D01*
X458100Y610641D01*
X458100Y611752D01*
X458767Y612863D01*
X460100Y613418D01*
X458767Y613974D01*
X458100Y615085D01*
X458100Y616196D01*
X458767Y617308D01*
X460100Y617863D01*
X461433Y617863D01*
X462766Y617308D01*
X463433Y616196D01*
G54D10*
X555187Y466763D02*
X555187Y452763D01*
X528521Y452763D01*
X528521Y466763D01*
G54D10*
X541854Y452763D02*
X541854Y466763D01*
G54D10*
X550187Y474096D02*
X553521Y476096D01*
X555187Y480096D01*
X555187Y484096D01*
X553521Y488096D01*
X550187Y490096D01*
X546854Y490096D01*
X543521Y488096D01*
X541854Y484096D01*
X541854Y480096D01*
X540187Y476096D01*
X536854Y474096D01*
X533521Y474096D01*
X530187Y476096D01*
X528521Y480096D01*
X528521Y484096D01*
X530187Y488096D01*
X533520Y490096D01*
G54D10*
X555187Y497429D02*
X528521Y497429D01*
X528521Y507429D01*
X530187Y511429D01*
X533521Y513429D01*
X536854Y513429D01*
X540188Y511429D01*
X541854Y507429D01*
X541854Y497429D01*
G54D10*
X533521Y520762D02*
X530188Y522762D01*
X528521Y526762D01*
X528521Y530762D01*
X530187Y534762D01*
X533521Y536762D01*
X536854Y536762D01*
X540188Y534762D01*
X541854Y530762D01*
X543521Y534762D01*
X546854Y536762D01*
X550187Y536762D01*
X553521Y534762D01*
X555187Y530762D01*
X555187Y526762D01*
X553521Y522762D01*
X550187Y520762D01*
G54D10*
X555187Y560095D02*
X555187Y544095D01*
X553521Y544095D01*
X550187Y546095D01*
X540187Y558095D01*
X536854Y560095D01*
X533521Y560095D01*
X530187Y558095D01*
X528521Y554095D01*
X528521Y550095D01*
X530187Y546095D01*
X533521Y544095D01*
G54D13*
X206165Y298712D02*
X214165Y301712D01*
X206165Y304712D01*
G54D13*
X214165Y310512D02*
X214165Y307512D01*
X206165Y307512D01*
X206165Y310512D01*
X206665Y311712D01*
X207665Y312312D01*
X212665Y312312D01*
X213665Y311712D01*
X214165Y310512D01*
G54D13*
X209165Y315112D02*
X206165Y318112D01*
X214165Y318112D01*
G54D14*
X274468Y256944D02*
X283357Y260277D01*
X274468Y263611D01*
G54D14*
X283357Y270055D02*
X283357Y266722D01*
X274468Y266722D01*
X274468Y270055D01*
X275023Y271389D01*
X276134Y272055D01*
X281690Y272055D01*
X282801Y271389D01*
X283357Y270055D01*
G54D14*
X283357Y279166D02*
X274468Y279166D01*
X280023Y275166D01*
X281134Y275166D01*
X281134Y280499D01*
X346400Y257500D02*
G54D15*
D03*
G54D14*
X324106Y243725D02*
X327439Y234836D01*
X330773Y243725D01*
G54D14*
X336551Y234836D02*
X336551Y243725D01*
G54D14*
X333884Y243725D02*
X339217Y243725D01*
G54D14*
X342328Y240392D02*
X345661Y243725D01*
X345661Y234836D01*
G54D16*
X905200Y333700D02*
X905200Y155900D01*
X524200Y155900D01*
X524200Y333700D01*
X905200Y333700D01*
G36*
X467580Y251471D02*
X467580Y264171D01*
X473180Y264171D01*
X473180Y251471D01*
X467580Y251471D01*
G37*
G54D17*
X467580Y251471D02*
X467580Y264171D01*
X473180Y264171D01*
X473180Y251471D01*
X467580Y251471D01*
G54D14*
X463099Y243942D02*
X466433Y235053D01*
X469766Y243942D01*
G54D14*
X476211Y235053D02*
X472877Y235053D01*
X472877Y243942D01*
X476211Y243942D01*
X477544Y243386D01*
X478211Y242276D01*
X478211Y236720D01*
X477544Y235609D01*
X476211Y235053D01*
G54D14*
X485321Y235053D02*
X485321Y243942D01*
X481321Y238386D01*
X481321Y237276D01*
X486655Y237276D01*
G54D14*
X458145Y354563D02*
X461478Y345674D01*
X464811Y354563D01*
G54D14*
X471256Y345674D02*
X467923Y345674D01*
X467923Y354563D01*
X471256Y354563D01*
X472589Y354007D01*
X473256Y352896D01*
X473256Y347341D01*
X472589Y346230D01*
X471256Y345674D01*
G54D14*
X476367Y351230D02*
X479700Y354563D01*
X479700Y345674D01*
G54D14*
X487477Y354007D02*
X488144Y352896D01*
X488144Y347341D01*
X487477Y346230D01*
X486144Y345674D01*
X484811Y345674D01*
X483477Y346230D01*
X482811Y347341D01*
X482811Y352896D01*
X483477Y354007D01*
X484811Y354563D01*
X486144Y354563D01*
X487477Y354007D01*
G36*
X467580Y276871D02*
X467580Y289571D01*
X473180Y289571D01*
X473180Y276871D01*
X467580Y276871D01*
G37*
G54D17*
X467580Y276871D02*
X467580Y289571D01*
X473180Y289571D01*
X473180Y276871D01*
X467580Y276871D01*
G54D14*
X458510Y305280D02*
X461844Y296391D01*
X465177Y305280D01*
G54D14*
X471622Y296391D02*
X468288Y296391D01*
X468288Y305280D01*
X471622Y305280D01*
X472955Y304724D01*
X473622Y303613D01*
X473622Y298058D01*
X472955Y296946D01*
X471622Y296391D01*
G54D14*
X482066Y305280D02*
X476732Y305280D01*
X476732Y301391D01*
X477399Y301391D01*
X478732Y301946D01*
X480066Y301946D01*
X481399Y301391D01*
X482066Y300280D01*
X482066Y298058D01*
X481399Y296946D01*
X480066Y296391D01*
X478732Y296391D01*
X477399Y296946D01*
X476732Y298058D01*
G54D18*
X17608Y321881D02*
X17608Y311047D01*
G54D18*
X17608Y316881D02*
X18275Y314714D01*
X19608Y314381D01*
X20941Y314714D01*
X21608Y316381D01*
X21608Y319714D01*
X20941Y321381D01*
X19608Y321881D01*
X18275Y321381D01*
X17608Y319381D01*
G54D18*
X28608Y314714D02*
X29275Y316381D01*
X29275Y319714D01*
X28608Y321381D01*
X27275Y321881D01*
X25942Y321381D01*
X25275Y319714D01*
X25275Y316381D01*
X25942Y314714D01*
X27275Y314381D01*
X28608Y314714D01*
G54D18*
X32942Y321881D02*
X34942Y314381D01*
X36942Y321881D01*
X38942Y314381D01*
X40275Y321881D01*
G54D18*
X47742Y320214D02*
X53075Y320214D01*
G54D18*
X50409Y323547D02*
X50409Y316881D01*
G54D18*
X56742Y322714D02*
X60075Y327714D01*
X60075Y314381D01*
G54D18*
X69075Y314381D02*
X63742Y314381D01*
X63742Y315214D01*
X64409Y316881D01*
X68409Y321881D01*
X69075Y323547D01*
X69075Y325214D01*
X68409Y326881D01*
X67075Y327714D01*
X65742Y327714D01*
X64409Y326881D01*
X63742Y325214D01*
G54D18*
X36407Y340485D02*
X37073Y342152D01*
X37073Y345485D01*
X36407Y347152D01*
X35073Y347652D01*
X33740Y347152D01*
X33073Y345485D01*
X33073Y342152D01*
X33740Y340485D01*
X35073Y340152D01*
X36407Y340485D01*
G54D18*
X44740Y347652D02*
X44740Y340152D01*
G54D18*
X44740Y341819D02*
X44074Y340485D01*
X42740Y340152D01*
X41407Y340485D01*
X40740Y341819D01*
X40740Y347652D01*
G54D18*
X49741Y353485D02*
X49741Y340985D01*
X50407Y340152D01*
X51074Y340485D01*
G54D18*
X48407Y347652D02*
X51074Y347652D01*
G54D18*
X54741Y345985D02*
X60075Y345985D01*
G54D18*
X57408Y349319D02*
X57408Y342652D01*
G54D18*
X69075Y353485D02*
X63741Y353485D01*
X63741Y347652D01*
X64408Y347652D01*
X65741Y348485D01*
X67075Y348485D01*
X68408Y347652D01*
X69075Y345985D01*
X69075Y342652D01*
X68408Y340985D01*
X67075Y340152D01*
X65741Y340152D01*
X64408Y340985D01*
X63741Y342652D01*
G54D18*
X154373Y463984D02*
X154373Y471484D01*
G54D18*
X154373Y473984D02*
X154373Y473984D01*
G54D18*
X158040Y463984D02*
X158040Y471484D01*
G54D18*
X158040Y469818D02*
X158707Y470984D01*
X160040Y471484D01*
X161374Y470984D01*
X162040Y469818D01*
X162040Y463984D01*
G54D18*
X165707Y477318D02*
X165707Y466484D01*
X166374Y464818D01*
X167707Y463984D01*
X169040Y463984D01*
X170374Y464818D01*
X171040Y466484D01*
X171040Y477318D01*
G54D18*
X174707Y463984D02*
X181374Y463984D01*
G54D18*
X185041Y463984D02*
X185041Y477318D01*
X189708Y477318D01*
G54D18*
X185041Y470651D02*
X189708Y470651D01*
G54D18*
X48408Y404066D02*
X50408Y402400D01*
X51075Y400733D01*
X51075Y397400D01*
G54D18*
X45742Y397400D02*
X45742Y410733D01*
X49075Y410733D01*
X50408Y409900D01*
X51075Y408233D01*
X51075Y406566D01*
X50408Y404900D01*
X49075Y404066D01*
X45742Y404066D01*
G54D18*
X54742Y404900D02*
X60075Y397400D01*
G54D18*
X54742Y397400D02*
X60075Y404900D01*
G54D18*
X63742Y397400D02*
X63742Y410733D01*
X69075Y397400D01*
X69075Y410733D01*
G54D18*
X48408Y372000D02*
X48408Y385333D01*
G54D18*
X45742Y385333D02*
X51075Y385333D01*
G54D18*
X54742Y379500D02*
X60075Y372000D01*
G54D18*
X54742Y372000D02*
X60075Y379500D01*
G54D18*
X63742Y372000D02*
X63742Y385333D01*
X69075Y372000D01*
X69075Y385333D01*
G54D18*
X39742Y468321D02*
X38409Y468821D01*
X37076Y468321D01*
X36409Y466654D01*
X36409Y463321D01*
X37076Y461654D01*
X38409Y461321D01*
X39742Y461654D01*
G54D18*
X46742Y461654D02*
X47409Y463321D01*
X47409Y466654D01*
X46742Y468321D01*
X45409Y468821D01*
X44076Y468321D01*
X43409Y466654D01*
X43409Y463321D01*
X44076Y461654D01*
X45409Y461321D01*
X46742Y461654D01*
G54D18*
X55076Y468821D02*
X55076Y461321D01*
G54D18*
X55076Y462988D02*
X54409Y461654D01*
X53076Y461321D01*
X51743Y461654D01*
X51076Y462988D01*
X51076Y468821D01*
G54D18*
X58743Y461321D02*
X58743Y468821D01*
G54D18*
X58743Y467154D02*
X59410Y468321D01*
X60743Y468821D01*
X62076Y468321D01*
X62743Y467154D01*
X62743Y461321D01*
G54D18*
X67743Y474654D02*
X67743Y462154D01*
X68410Y461321D01*
X69077Y461654D01*
G54D18*
X66410Y468821D02*
X69077Y468821D01*
G54D18*
X49741Y427071D02*
X51074Y426238D01*
X52008Y426238D01*
X53341Y427071D01*
X53741Y428738D01*
X53741Y437071D01*
G54D18*
X53741Y434904D02*
X53074Y436571D01*
X51741Y437071D01*
X50408Y436571D01*
X49741Y434904D01*
X49741Y431571D01*
X50408Y429904D01*
X51741Y429571D01*
X53074Y429904D01*
X53741Y431571D01*
G54D18*
X57408Y429571D02*
X57408Y437071D01*
G54D18*
X57408Y435404D02*
X58075Y436571D01*
X59408Y437071D01*
X60741Y436571D01*
X61408Y435404D01*
X61408Y429571D01*
G54D18*
X69075Y429571D02*
X69075Y442904D01*
G54D18*
X69075Y434904D02*
X68408Y436571D01*
X67075Y437071D01*
X65742Y436571D01*
X65075Y434904D01*
X65075Y431571D01*
X65742Y429904D01*
X67075Y429571D01*
X68408Y429904D01*
X69075Y431571D01*
G54D18*
X154373Y315434D02*
X155706Y314601D01*
X156640Y314601D01*
X157973Y315434D01*
X158373Y317101D01*
X158373Y325434D01*
G54D18*
X158373Y323268D02*
X157706Y324934D01*
X156373Y325434D01*
X155040Y324934D01*
X154373Y323268D01*
X154373Y319934D01*
X155040Y318268D01*
X156373Y317934D01*
X157706Y318268D01*
X158373Y319934D01*
G54D18*
X162040Y317934D02*
X162040Y325434D01*
G54D18*
X162040Y323768D02*
X162707Y324934D01*
X164040Y325434D01*
X165373Y324934D01*
X166040Y323768D01*
X166040Y317934D01*
G54D18*
X173707Y317934D02*
X173707Y331268D01*
G54D18*
X173707Y323268D02*
X173040Y324934D01*
X171707Y325434D01*
X170374Y324934D01*
X169707Y323268D01*
X169707Y319934D01*
X170374Y318268D01*
X171707Y317934D01*
X173040Y318268D01*
X173707Y319934D01*
G54D18*
X154373Y340834D02*
X155706Y340001D01*
X156640Y340001D01*
X157973Y340834D01*
X158373Y342501D01*
X158373Y350834D01*
G54D18*
X158373Y348668D02*
X157706Y350334D01*
X156373Y350834D01*
X155040Y350334D01*
X154373Y348668D01*
X154373Y345334D01*
X155040Y343668D01*
X156373Y343334D01*
X157706Y343668D01*
X158373Y345334D01*
G54D18*
X162040Y343334D02*
X162040Y350834D01*
G54D18*
X162040Y349168D02*
X162707Y350334D01*
X164040Y350834D01*
X165373Y350334D01*
X166040Y349168D01*
X166040Y343334D01*
G54D18*
X173707Y343334D02*
X173707Y356668D01*
G54D18*
X173707Y348668D02*
X173040Y350334D01*
X171707Y350834D01*
X170374Y350334D01*
X169707Y348668D01*
X169707Y345334D01*
X170374Y343668D01*
X171707Y343334D01*
X173040Y343668D01*
X173707Y345334D01*
G54D18*
X157706Y369068D02*
X158373Y370734D01*
X158373Y374068D01*
X157706Y375734D01*
X156373Y376234D01*
X155040Y375734D01*
X154373Y374068D01*
X154373Y370734D01*
X155040Y369068D01*
X156373Y368734D01*
X157706Y369068D01*
G54D18*
X166040Y376234D02*
X166040Y368734D01*
G54D18*
X166040Y370401D02*
X165373Y369068D01*
X164040Y368734D01*
X162707Y369068D01*
X162040Y370401D01*
X162040Y376234D01*
G54D18*
X171040Y382068D02*
X171040Y369568D01*
X171707Y368734D01*
X172374Y369068D01*
G54D18*
X169707Y376234D02*
X172374Y376234D01*
G54D18*
X176041Y377068D02*
X179374Y382068D01*
X179374Y368734D01*
G54D18*
X157706Y400818D02*
X158373Y402484D01*
X158373Y405818D01*
X157706Y407484D01*
X156373Y407984D01*
X155040Y407484D01*
X154373Y405818D01*
X154373Y402484D01*
X155040Y400818D01*
X156373Y400484D01*
X157706Y400818D01*
G54D18*
X166040Y407984D02*
X166040Y400484D01*
G54D18*
X166040Y402151D02*
X165373Y400818D01*
X164040Y400484D01*
X162707Y400818D01*
X162040Y402151D01*
X162040Y407984D01*
G54D18*
X171040Y413818D02*
X171040Y401318D01*
X171707Y400484D01*
X172374Y400818D01*
G54D18*
X169707Y407984D02*
X172374Y407984D01*
G54D18*
X181374Y400484D02*
X176041Y400484D01*
X176041Y401318D01*
X176708Y402984D01*
X180708Y407984D01*
X181374Y409651D01*
X181374Y411318D01*
X180708Y412984D01*
X179374Y413818D01*
X178041Y413818D01*
X176708Y412984D01*
X176041Y411318D01*
G54D18*
X22940Y505983D02*
X22940Y492650D01*
X27606Y492650D01*
G54D18*
X31274Y505983D02*
X31274Y492650D01*
X35940Y492650D01*
G54D18*
X39608Y495150D02*
X40274Y493483D01*
X41608Y492650D01*
X42941Y492650D01*
X44274Y493483D01*
X44941Y495150D01*
X44941Y496816D01*
X44274Y498483D01*
X42941Y499316D01*
X41608Y499316D01*
X40274Y500150D01*
X39608Y501816D01*
X39608Y503483D01*
X40274Y505150D01*
X41608Y505983D01*
X42941Y505983D01*
X44274Y505150D01*
X44941Y503483D01*
G54D18*
X54408Y505983D02*
X53074Y505150D01*
X52408Y503483D01*
X52408Y495150D01*
X53074Y493483D01*
X54408Y492650D01*
G54D18*
X61408Y492650D02*
X58075Y492650D01*
X58075Y505983D01*
X61408Y505983D01*
X62741Y505150D01*
X63408Y503483D01*
X63408Y501816D01*
X62741Y500150D01*
X61408Y499316D01*
X62741Y498483D01*
X63408Y496816D01*
X63408Y495150D01*
X62741Y493483D01*
X61408Y492650D01*
G54D18*
X58075Y499316D02*
X61408Y499316D01*
G54D18*
X67075Y505983D02*
X68408Y505150D01*
X69075Y503483D01*
X69075Y495150D01*
X68408Y493483D01*
X67075Y492650D01*
G54D18*
X21606Y531383D02*
X21606Y518050D01*
X26272Y518050D01*
G54D18*
X29940Y531383D02*
X29940Y518050D01*
X34606Y518050D01*
G54D18*
X38274Y520550D02*
X38940Y518883D01*
X40274Y518050D01*
X41607Y518050D01*
X42940Y518883D01*
X43607Y520550D01*
X43607Y522216D01*
X42940Y523883D01*
X41607Y524716D01*
X40274Y524716D01*
X38940Y525550D01*
X38274Y527216D01*
X38274Y528883D01*
X38940Y530550D01*
X40274Y531383D01*
X41607Y531383D01*
X42940Y530550D01*
X43607Y528883D01*
G54D18*
X53074Y531383D02*
X51740Y530550D01*
X51074Y528883D01*
X51074Y520550D01*
X51740Y518883D01*
X53074Y518050D01*
G54D18*
X56741Y518050D02*
X60074Y531383D01*
X63407Y518050D01*
G54D18*
X58074Y523050D02*
X62074Y523050D01*
G54D18*
X67075Y531383D02*
X68408Y530550D01*
X69075Y528883D01*
X69075Y520550D01*
X68408Y518883D01*
X67075Y518050D01*
G54D18*
X154373Y495313D02*
X154373Y508646D01*
X157706Y500313D01*
X161039Y508646D01*
X161039Y495313D01*
G54D18*
X168040Y495646D02*
X168707Y497313D01*
X168707Y500646D01*
X168040Y502313D01*
X166707Y502813D01*
X165373Y502313D01*
X164707Y500646D01*
X164707Y497313D01*
X165373Y495646D01*
X166707Y495313D01*
X168040Y495646D01*
G54D18*
X176374Y495313D02*
X176374Y508646D01*
G54D18*
X176374Y500646D02*
X175707Y502313D01*
X174374Y502813D01*
X173040Y502313D01*
X172374Y500646D01*
X172374Y497313D01*
X173040Y495646D01*
X174374Y495313D01*
X175707Y495646D01*
X176374Y497313D01*
G54D18*
X185841Y508646D02*
X184507Y507813D01*
X183841Y506146D01*
X183841Y497813D01*
X184507Y496146D01*
X185841Y495313D01*
G54D18*
X189508Y495313D02*
X192841Y508646D01*
X196174Y495313D01*
G54D18*
X190841Y500313D02*
X194841Y500313D01*
G54D18*
X199842Y508646D02*
X201175Y507813D01*
X201842Y506146D01*
X201842Y497813D01*
X201175Y496146D01*
X199842Y495313D01*
G54D18*
X154373Y520713D02*
X154373Y534046D01*
X157706Y525713D01*
X161039Y534046D01*
X161039Y520713D01*
G54D18*
X168040Y521046D02*
X168707Y522713D01*
X168707Y526046D01*
X168040Y527713D01*
X166707Y528213D01*
X165373Y527713D01*
X164707Y526046D01*
X164707Y522713D01*
X165373Y521046D01*
X166707Y520713D01*
X168040Y521046D01*
G54D18*
X176374Y520713D02*
X176374Y534046D01*
G54D18*
X176374Y526046D02*
X175707Y527713D01*
X174374Y528213D01*
X173040Y527713D01*
X172374Y526046D01*
X172374Y522713D01*
X173040Y521046D01*
X174374Y520713D01*
X175707Y521046D01*
X176374Y522713D01*
G54D18*
X185841Y534046D02*
X184507Y533213D01*
X183841Y531546D01*
X183841Y523213D01*
X184507Y521546D01*
X185841Y520713D01*
G54D18*
X192841Y520713D02*
X189508Y520713D01*
X189508Y534046D01*
X192841Y534046D01*
X194174Y533213D01*
X194841Y531546D01*
X194841Y529880D01*
X194174Y528213D01*
X192841Y527380D01*
X194174Y526546D01*
X194841Y524880D01*
X194841Y523213D01*
X194174Y521546D01*
X192841Y520713D01*
G54D18*
X189508Y527380D02*
X192841Y527380D01*
G54D18*
X198508Y534046D02*
X199841Y533213D01*
X200508Y531546D01*
X200508Y523213D01*
X199841Y521546D01*
X198508Y520713D01*
G54D18*
X154373Y429734D02*
X155706Y428901D01*
X156640Y428901D01*
X157973Y429734D01*
X158373Y431401D01*
X158373Y439734D01*
G54D18*
X158373Y437568D02*
X157706Y439234D01*
X156373Y439734D01*
X155040Y439234D01*
X154373Y437568D01*
X154373Y434234D01*
X155040Y432568D01*
X156373Y432234D01*
X157706Y432568D01*
X158373Y434234D01*
G54D18*
X162040Y432234D02*
X162040Y439734D01*
G54D18*
X162040Y438068D02*
X162707Y439234D01*
X164040Y439734D01*
X165373Y439234D01*
X166040Y438068D01*
X166040Y432234D01*
G54D18*
X173707Y432234D02*
X173707Y445568D01*
G54D18*
X173707Y437568D02*
X173040Y439234D01*
X171707Y439734D01*
X170374Y439234D01*
X169707Y437568D01*
X169707Y434234D01*
X170374Y432568D01*
X171707Y432234D01*
X173040Y432568D01*
X173707Y434234D01*
G54D19*
X79700Y536900D02*
X79700Y489523D01*
G54D19*
X79700Y435300D02*
X79700Y346400D01*
G54D19*
X143200Y536900D02*
X143200Y489523D01*
G54D14*
X423386Y349730D02*
X425386Y348618D01*
X426053Y347507D01*
X426053Y345285D01*
G54D14*
X420720Y345285D02*
X420720Y354174D01*
X424053Y354174D01*
X425386Y353618D01*
X426053Y352507D01*
X426053Y351396D01*
X425386Y350285D01*
X424053Y349730D01*
X420720Y349730D01*
G54D14*
X429164Y352507D02*
X429830Y353618D01*
X431164Y354174D01*
X432497Y354174D01*
X433830Y353618D01*
X434497Y352507D01*
X434497Y351396D01*
X433830Y350285D01*
X432497Y349730D01*
X433830Y349174D01*
X434497Y348063D01*
X434497Y346952D01*
X433830Y345841D01*
X432497Y345285D01*
X431164Y345285D01*
X429830Y345841D01*
X429164Y346952D01*
G54D14*
X442274Y353618D02*
X442941Y352507D01*
X442941Y346952D01*
X442274Y345841D01*
X440941Y345285D01*
X439608Y345285D01*
X438274Y345841D01*
X437608Y346952D01*
X437608Y352507D01*
X438274Y353618D01*
X439608Y354174D01*
X440941Y354174D01*
X442274Y353618D01*
G54D14*
X385125Y313780D02*
X387125Y312668D01*
X387792Y311557D01*
X387792Y309335D01*
G54D14*
X382459Y309335D02*
X382459Y318224D01*
X385792Y318224D01*
X387125Y317668D01*
X387792Y316557D01*
X387792Y315446D01*
X387125Y314335D01*
X385792Y313780D01*
X382459Y313780D01*
G54D14*
X394903Y309335D02*
X394903Y318224D01*
X390903Y312668D01*
X390903Y311557D01*
X396236Y311557D01*
G54D14*
X387840Y280646D02*
X389840Y279535D01*
X390507Y278424D01*
X390507Y276202D01*
G54D14*
X385174Y276202D02*
X385174Y285090D01*
X388507Y285090D01*
X389840Y284535D01*
X390507Y283424D01*
X390507Y282313D01*
X389840Y281202D01*
X388507Y280646D01*
X385174Y280646D01*
G54D14*
X393618Y281757D02*
X396951Y285090D01*
X396951Y276202D01*
G54D14*
X345852Y333256D02*
X347852Y332146D01*
X348519Y331034D01*
X348519Y328812D01*
G54D14*
X343185Y328812D02*
X343185Y337701D01*
X346519Y337701D01*
X347852Y337146D01*
X348519Y336034D01*
X348519Y334923D01*
X347852Y333812D01*
X346519Y333256D01*
X343185Y333256D01*
G54D14*
X356963Y337701D02*
X351629Y337701D01*
X351629Y333812D01*
X352296Y333812D01*
X353629Y334368D01*
X354963Y334368D01*
X356296Y333812D01*
X356963Y332701D01*
X356963Y330479D01*
X356296Y329368D01*
X354963Y328812D01*
X353629Y328812D01*
X352296Y329368D01*
X351629Y330479D01*
G54D14*
X396461Y233856D02*
X398461Y232745D01*
X399127Y231634D01*
X399127Y229412D01*
G54D14*
X393794Y229412D02*
X393794Y238300D01*
X397127Y238300D01*
X398461Y237745D01*
X399127Y236634D01*
X399127Y235523D01*
X398461Y234412D01*
X397127Y233856D01*
X393794Y233856D01*
G54D14*
X407571Y229412D02*
X402238Y229412D01*
X402238Y229967D01*
X402905Y231078D01*
X406905Y234412D01*
X407571Y235523D01*
X407571Y236634D01*
X406905Y237745D01*
X405571Y238300D01*
X404238Y238300D01*
X402905Y237745D01*
X402238Y236634D01*
G54D14*
X425941Y299006D02*
X427941Y297895D01*
X428608Y296784D01*
X428608Y294562D01*
G54D14*
X423275Y294562D02*
X423275Y303451D01*
X426608Y303451D01*
X427941Y302895D01*
X428608Y301784D01*
X428608Y300673D01*
X427941Y299562D01*
X426608Y299006D01*
X423275Y299006D01*
G54D14*
X437052Y301784D02*
X436385Y302895D01*
X435052Y303451D01*
X433719Y303451D01*
X432385Y302895D01*
X431719Y301784D01*
X431719Y299006D01*
X431719Y298451D01*
X433719Y299562D01*
X435052Y299562D01*
X436385Y299006D01*
X437052Y297895D01*
X437052Y296229D01*
X436385Y295118D01*
X435052Y294562D01*
X433719Y294562D01*
X432385Y295118D01*
X431719Y296229D01*
X431719Y299006D01*
G54D14*
X429424Y238728D02*
X431424Y237616D01*
X432091Y236505D01*
X432091Y234283D01*
G54D14*
X426758Y234283D02*
X426758Y243172D01*
X430091Y243172D01*
X431424Y242616D01*
X432091Y241505D01*
X432091Y240394D01*
X431424Y239283D01*
X430091Y238728D01*
X426758Y238728D01*
G54D14*
X435202Y241505D02*
X435868Y242616D01*
X437202Y243172D01*
X438535Y243172D01*
X439868Y242616D01*
X440535Y241505D01*
X440535Y240394D01*
X439868Y239283D01*
X438535Y238728D01*
X439868Y238172D01*
X440535Y237061D01*
X440535Y235950D01*
X439868Y234838D01*
X438535Y234283D01*
X437202Y234283D01*
X435868Y234838D01*
X435202Y235950D01*
G36*
X467512Y327228D02*
X467512Y339928D01*
X473112Y339928D01*
X473112Y327228D01*
X467512Y327228D01*
G37*
G54D17*
X467512Y327228D02*
X467512Y339928D01*
X473112Y339928D01*
X473112Y327228D01*
X467512Y327228D01*
G54D20*
X571500Y38100D02*
X578167Y55878D01*
X584833Y38100D01*
G54D20*
X574167Y44767D02*
X582167Y44767D01*
G54D20*
X589722Y38100D02*
X589722Y48100D01*
X595055Y48100D01*
X596389Y46989D01*
X596389Y44767D01*
X595055Y43656D01*
X589722Y43656D01*
G54D20*
X595055Y43656D02*
X597722Y41433D01*
X597722Y39211D01*
X596389Y38100D01*
X589722Y38100D01*
G54D20*
X602611Y48100D02*
X610611Y48100D01*
G54D20*
X606611Y38100D02*
X606611Y48100D01*
G54D20*
X623500Y40767D02*
X623500Y45211D01*
X622167Y47433D01*
X619500Y48100D01*
X616833Y47433D01*
X615500Y45211D01*
X615500Y40767D01*
X616833Y38544D01*
X619500Y38100D01*
X622167Y38544D01*
X623500Y40767D01*
G54D20*
X628389Y38100D02*
X628389Y48100D01*
X633722Y42544D01*
X639056Y48100D01*
X639056Y38100D01*
G54D20*
X643945Y46989D02*
X646612Y48100D01*
X649812Y48100D01*
X651945Y45878D01*
X651945Y38100D01*
G54D20*
X651945Y41433D02*
X650612Y43656D01*
X647945Y44100D01*
X645278Y43656D01*
X643945Y41433D01*
X644478Y39211D01*
X646612Y38100D01*
X647945Y38100D01*
X648478Y38100D01*
X650612Y39211D01*
X651945Y41433D01*
G54D20*
X656834Y48100D02*
X664834Y48100D01*
G54D20*
X660834Y38100D02*
X660834Y48100D01*
G54D20*
X669723Y48100D02*
X669723Y38100D01*
X677723Y48100D01*
X677723Y38100D01*
G54D20*
X682612Y48100D02*
X682612Y43656D01*
X683945Y42544D01*
X690612Y42544D01*
G54D20*
X690612Y48100D02*
X690612Y38100D01*
G54D20*
X703501Y39211D02*
X701368Y38100D01*
X698701Y38100D01*
X696034Y39211D01*
X695501Y41433D01*
X695501Y45211D01*
X696834Y47433D01*
X699501Y48100D01*
X702168Y47433D01*
X703501Y45878D01*
X703501Y43656D01*
X695501Y43656D01*
G54D20*
X715057Y47433D02*
X712390Y48100D01*
X709723Y47433D01*
X708390Y45211D01*
X708390Y40767D01*
X709723Y38544D01*
X712390Y38100D01*
X715057Y38544D01*
G54D20*
X719946Y38100D02*
X719946Y48100D01*
G54D20*
X723946Y44767D02*
X727946Y38100D01*
G54D20*
X719946Y42544D02*
X727946Y48100D01*
G54D20*
X732835Y46989D02*
X735502Y48100D01*
X738702Y48100D01*
X740835Y45878D01*
X740835Y38100D01*
G54D20*
X740835Y41433D02*
X739502Y43656D01*
X736835Y44100D01*
X734168Y43656D01*
X732835Y41433D01*
X733368Y39211D01*
X735502Y38100D01*
X736835Y38100D01*
X737368Y38100D01*
X739502Y39211D01*
X740835Y41433D01*
G54D20*
X745724Y38100D02*
X751057Y43656D01*
X753724Y43656D01*
X748391Y43656D01*
X747057Y44767D01*
X747057Y46989D01*
X748391Y48100D01*
X753724Y48100D01*
X753724Y38100D01*
G54D20*
X763769Y48100D02*
X771769Y48100D01*
G54D20*
X767769Y38100D02*
X767769Y48100D01*
G54D20*
X776658Y46989D02*
X779325Y48100D01*
X782525Y48100D01*
X784658Y45878D01*
X784658Y38100D01*
G54D20*
X784658Y41433D02*
X783325Y43656D01*
X780658Y44100D01*
X777991Y43656D01*
X776658Y41433D01*
X777191Y39211D01*
X779325Y38100D01*
X780658Y38100D01*
X781191Y38100D01*
X783325Y39211D01*
X784658Y41433D01*
G54D20*
X789547Y48100D02*
X789547Y33656D01*
G54D20*
X789547Y41433D02*
X790880Y38544D01*
X793547Y38100D01*
X796214Y38544D01*
X797547Y40767D01*
X797547Y45211D01*
X796214Y47433D01*
X793547Y48100D01*
X790880Y47433D01*
X789547Y44767D01*
G54D20*
X802436Y48100D02*
X802436Y38100D01*
X810436Y48100D01*
X810436Y38100D01*
G54D20*
X815325Y48100D02*
X815325Y33656D01*
G54D20*
X815325Y41433D02*
X816658Y38544D01*
X819325Y38100D01*
X821992Y38544D01*
X823325Y40767D01*
X823325Y45211D01*
X821992Y47433D01*
X819325Y48100D01*
X816658Y47433D01*
X815325Y44767D01*
G54D20*
X836214Y40767D02*
X836214Y45211D01*
X834881Y47433D01*
X832214Y48100D01*
X829547Y47433D01*
X828214Y45211D01*
X828214Y40767D01*
X829547Y38544D01*
X832214Y38100D01*
X834881Y38544D01*
X836214Y40767D01*
G54D20*
X841103Y38100D02*
X841103Y48100D01*
X846436Y48100D01*
X847770Y46989D01*
X847770Y44767D01*
X846436Y43656D01*
X841103Y43656D01*
G54D20*
X846436Y43656D02*
X849103Y41433D01*
X849103Y39211D01*
X847770Y38100D01*
X841103Y38100D01*
G54D20*
X861992Y40767D02*
X861992Y45211D01*
X860659Y47433D01*
X857992Y48100D01*
X855325Y47433D01*
X853992Y45211D01*
X853992Y40767D01*
X855325Y38544D01*
X857992Y38100D01*
X860659Y38544D01*
X861992Y40767D01*
G54D20*
X866881Y48100D02*
X866881Y43656D01*
X868214Y42544D01*
X874881Y42544D01*
G54D20*
X874881Y48100D02*
X874881Y38100D01*
G54D20*
X879770Y38100D02*
X879770Y48100D01*
G54D20*
X879770Y43656D02*
X887770Y43656D01*
G54D20*
X887770Y38100D02*
X887770Y48100D01*
G54D20*
X892659Y46989D02*
X895326Y48100D01*
X898526Y48100D01*
X900659Y45878D01*
X900659Y38100D01*
G54D20*
X900659Y41433D02*
X899326Y43656D01*
X896659Y44100D01*
X893992Y43656D01*
X892659Y41433D01*
X893192Y39211D01*
X895326Y38100D01*
X896659Y38100D01*
X897192Y38100D01*
X899326Y39211D01*
X900659Y41433D01*
G54D20*
X905548Y38100D02*
X910881Y43656D01*
X913548Y43656D01*
X908215Y43656D01*
X906881Y44767D01*
X906881Y46989D01*
X908215Y48100D01*
X913548Y48100D01*
X913548Y38100D01*
G54D20*
X930260Y47433D02*
X927593Y48100D01*
X924926Y47433D01*
X923593Y45211D01*
X923593Y40767D01*
X924926Y38544D01*
X927593Y38100D01*
X930260Y38544D01*
G54D20*
X935149Y48100D02*
X943149Y48100D01*
G54D20*
X939149Y38100D02*
X939149Y48100D01*
G54D20*
X948038Y46989D02*
X950705Y48100D01*
X953905Y48100D01*
X956038Y45878D01*
X956038Y38100D01*
G54D20*
X956038Y41433D02*
X954705Y43656D01*
X952038Y44100D01*
X949371Y43656D01*
X948038Y41433D01*
X948571Y39211D01*
X950705Y38100D01*
X952038Y38100D01*
X952571Y38100D01*
X954705Y39211D01*
X956038Y41433D01*
G54D20*
X960927Y38100D02*
X960927Y48100D01*
G54D20*
X960927Y43656D02*
X968927Y43656D01*
G54D20*
X968927Y38100D02*
X968927Y48100D01*
G54D20*
X973816Y48100D02*
X973816Y38100D01*
X983149Y38100D01*
X983149Y36989D01*
G54D20*
X981816Y48100D02*
X981816Y38100D01*
G54D20*
X988038Y48100D02*
X988038Y38100D01*
X996038Y48100D01*
X996038Y38100D01*
G54D20*
X1000927Y38100D02*
X1006260Y43656D01*
X1008927Y43656D01*
X1003594Y43656D01*
X1002260Y44767D01*
X1002260Y46989D01*
X1003594Y48100D01*
X1008927Y48100D01*
X1008927Y38100D01*
G54D20*
X734567Y63500D02*
X723900Y63500D01*
X723900Y64611D01*
X725233Y66833D01*
X733233Y73500D01*
X734567Y75722D01*
X734567Y77944D01*
X733233Y80167D01*
X730567Y81278D01*
X727900Y81278D01*
X725233Y80167D01*
X723900Y77944D01*
G54D20*
X750123Y77944D02*
X750123Y66833D01*
X748789Y64611D01*
X746123Y63500D01*
X743456Y63500D01*
X740789Y64611D01*
X739456Y66833D01*
X739456Y77944D01*
X740789Y80167D01*
X743456Y81278D01*
X746123Y81278D01*
X748789Y80167D01*
X750123Y77944D01*
G54D20*
X765679Y63500D02*
X755012Y63500D01*
X755012Y64611D01*
X756345Y66833D01*
X764345Y73500D01*
X765679Y75722D01*
X765679Y77944D01*
X764345Y80167D01*
X761679Y81278D01*
X759012Y81278D01*
X756345Y80167D01*
X755012Y77944D01*
G54D20*
X781235Y81278D02*
X770568Y81278D01*
X770568Y73500D01*
X771901Y73500D01*
X774568Y74611D01*
X777235Y74611D01*
X779901Y73500D01*
X781235Y71278D01*
X781235Y66833D01*
X779901Y64611D01*
X777235Y63500D01*
X774568Y63500D01*
X771901Y64611D01*
X770568Y66833D01*
G54D20*
X786124Y63500D02*
X799457Y63500D01*
G54D20*
X804346Y77944D02*
X805679Y80167D01*
X808346Y81278D01*
X811013Y81278D01*
X813679Y80167D01*
X815013Y77944D01*
X815013Y75722D01*
X813679Y73500D01*
X811013Y72389D01*
X813679Y71278D01*
X815013Y69056D01*
X815013Y66833D01*
X813679Y64611D01*
X811013Y63500D01*
X808346Y63500D01*
X805679Y64611D01*
X804346Y66833D01*
G54D20*
X820969Y63500D02*
X819902Y63500D01*
X819902Y64389D01*
X820969Y64389D01*
X820969Y63500D01*
X819902Y63500D01*
G54D20*
X836525Y77944D02*
X836525Y66833D01*
X835191Y64611D01*
X832525Y63500D01*
X829858Y63500D01*
X827191Y64611D01*
X825858Y66833D01*
X825858Y77944D01*
X827191Y80167D01*
X829858Y81278D01*
X832525Y81278D01*
X835191Y80167D01*
X836525Y77944D01*
G54D20*
X846570Y73500D02*
X850570Y63500D01*
X854570Y73500D01*
X858570Y63500D01*
X861237Y73500D01*
G54D20*
X874126Y64611D02*
X871993Y63500D01*
X869326Y63500D01*
X866659Y64611D01*
X866126Y66833D01*
X866126Y70611D01*
X867459Y72833D01*
X870126Y73500D01*
X872793Y72833D01*
X874126Y71278D01*
X874126Y69056D01*
X866126Y69056D01*
G54D20*
X879015Y63500D02*
X879015Y81278D01*
G54D20*
X879015Y70611D02*
X880348Y72833D01*
X883015Y73500D01*
X885682Y72833D01*
X887015Y70611D01*
X887015Y66167D01*
X885682Y63944D01*
X883015Y63500D01*
X880348Y63944D01*
X879015Y66167D01*
G54D20*
X907727Y63500D02*
X897060Y63500D01*
X897060Y64611D01*
X898393Y66833D01*
X906393Y73500D01*
X907727Y75722D01*
X907727Y77944D01*
X906393Y80167D01*
X903727Y81278D01*
X901060Y81278D01*
X898393Y80167D01*
X897060Y77944D01*
G54D20*
X913683Y63500D02*
X912616Y63500D01*
X912616Y64389D01*
X913683Y64389D01*
X913683Y63500D01*
X912616Y63500D01*
G54D20*
X929239Y77944D02*
X929239Y66833D01*
X927905Y64611D01*
X925239Y63500D01*
X922572Y63500D01*
X919905Y64611D01*
X918572Y66833D01*
X918572Y77944D01*
X919905Y80167D01*
X922572Y81278D01*
X925239Y81278D01*
X927905Y80167D01*
X929239Y77944D01*
M02*
