%FSLAX34Y34*%
%MOMM*%
%LNSILK_BOTTOM*%
G71*
G01*
%ADD10C, 0.16*%
%ADD11C, 0.17*%
%ADD12C, 0.30*%
%ADD13C, 0.11*%
%LPD*%
G54D10*
X175446Y125390D02*
X184334Y125390D01*
X184334Y130057D01*
G54D10*
X179890Y125390D02*
X179890Y130057D01*
G54D10*
X175446Y133168D02*
X184334Y133168D01*
X184334Y136501D01*
X183779Y137835D01*
X182668Y138501D01*
X181557Y138501D01*
X180446Y137835D01*
X179890Y136501D01*
X179890Y133168D01*
G54D10*
X181001Y141612D02*
X184334Y144945D01*
X175446Y144945D01*
G54D10*
X284072Y148808D02*
X275183Y145475D01*
X284072Y142142D01*
G54D10*
X275183Y135697D02*
X275183Y139030D01*
X284072Y139030D01*
X284072Y135697D01*
X283517Y134364D01*
X282406Y133697D01*
X276850Y133697D01*
X275739Y134364D01*
X275183Y135697D01*
G54D10*
X275183Y125253D02*
X275183Y130586D01*
X275739Y130586D01*
X276850Y129920D01*
X280183Y125920D01*
X281295Y125253D01*
X282406Y125253D01*
X283517Y125920D01*
X284072Y127253D01*
X284072Y128586D01*
X283517Y129920D01*
X282406Y130586D01*
G54D10*
X191236Y127450D02*
X190125Y129450D01*
X189014Y130116D01*
X186791Y130116D01*
G54D10*
X186791Y124783D02*
X195680Y124783D01*
X195680Y128116D01*
X195125Y129450D01*
X194014Y130116D01*
X192902Y130116D01*
X191791Y129450D01*
X191236Y128116D01*
X191236Y124783D01*
G54D10*
X195680Y133227D02*
X188458Y133227D01*
X187347Y133894D01*
X186791Y135227D01*
X186791Y136560D01*
X187347Y137894D01*
X188458Y138560D01*
X195680Y138560D01*
G54D10*
X192347Y141671D02*
X195680Y145004D01*
X186791Y145004D01*
G54D10*
X435918Y397778D02*
X427029Y401111D01*
X435918Y404445D01*
G54D10*
X427029Y410889D02*
X427029Y407556D01*
X435918Y407556D01*
X435918Y410889D01*
X435362Y412223D01*
X434251Y412889D01*
X428695Y412889D01*
X427584Y412223D01*
X427029Y410889D01*
G54D10*
X434251Y421333D02*
X435362Y420667D01*
X435918Y419333D01*
X435918Y418000D01*
X435362Y416667D01*
X434251Y416000D01*
X431473Y416000D01*
X430918Y416000D01*
X432029Y418000D01*
X432029Y419333D01*
X431473Y420667D01*
X430362Y421333D01*
X428695Y421333D01*
X427584Y420667D01*
X427029Y419333D01*
X427029Y418000D01*
X427584Y416667D01*
X428695Y416000D01*
X431473Y416000D01*
G54D10*
X296184Y398223D02*
X295073Y396223D01*
X293962Y395557D01*
X291740Y395557D01*
G54D10*
X291740Y400890D02*
X300629Y400890D01*
X300629Y397557D01*
X300073Y396223D01*
X298962Y395557D01*
X297851Y395557D01*
X296740Y396223D01*
X296184Y397557D01*
X296184Y400890D01*
G54D10*
X296740Y387779D02*
X296184Y389113D01*
X296184Y390446D01*
X296740Y391779D01*
X297851Y392446D01*
X298962Y392446D01*
X300073Y391779D01*
X300629Y390446D01*
X300629Y389113D01*
X300073Y387779D01*
X298962Y387113D01*
X297851Y387113D01*
X296740Y387779D01*
G54D10*
X296184Y389113D02*
X295629Y387779D01*
X294518Y387113D01*
X293406Y387113D01*
X292295Y387779D01*
X291740Y389113D01*
X291740Y390446D01*
X292295Y391779D01*
X293406Y392446D01*
X294518Y392446D01*
X295629Y391779D01*
X296184Y390446D01*
G54D11*
X72570Y321637D02*
X72570Y310804D01*
G54D11*
X72570Y316637D02*
X71903Y314470D01*
X70570Y314137D01*
X69237Y314470D01*
X68570Y316137D01*
X68570Y319470D01*
X69237Y321137D01*
X70570Y321637D01*
X71903Y321137D01*
X72570Y319137D01*
G54D11*
X61570Y314470D02*
X60903Y316137D01*
X60903Y319470D01*
X61570Y321137D01*
X62903Y321637D01*
X64236Y321137D01*
X64903Y319470D01*
X64903Y316137D01*
X64236Y314470D01*
X62903Y314137D01*
X61570Y314470D01*
G54D11*
X57236Y321637D02*
X55236Y314137D01*
X53236Y321637D01*
X51236Y314137D01*
X49903Y321637D01*
G54D11*
X42436Y319970D02*
X37103Y319970D01*
G54D11*
X39769Y323304D02*
X39769Y316637D01*
G54D11*
X33436Y322470D02*
X30103Y327470D01*
X30103Y314137D01*
G54D11*
X21103Y314137D02*
X26436Y314137D01*
X26436Y314970D01*
X25769Y316637D01*
X21769Y321637D01*
X21103Y323304D01*
X21103Y324970D01*
X21769Y326637D01*
X23103Y327470D01*
X24436Y327470D01*
X25769Y326637D01*
X26436Y324970D01*
G54D11*
X69236Y340242D02*
X68570Y341908D01*
X68570Y345242D01*
X69236Y346908D01*
X70570Y347408D01*
X71903Y346908D01*
X72570Y345242D01*
X72570Y341908D01*
X71903Y340242D01*
X70570Y339908D01*
X69236Y340242D01*
G54D11*
X60903Y347408D02*
X60903Y339908D01*
G54D11*
X60903Y341575D02*
X61569Y340242D01*
X62903Y339908D01*
X64236Y340242D01*
X64903Y341575D01*
X64903Y347408D01*
G54D11*
X55902Y353242D02*
X55902Y340742D01*
X55236Y339908D01*
X54569Y340242D01*
G54D11*
X57236Y347408D02*
X54569Y347408D01*
G54D11*
X50902Y345742D02*
X45568Y345742D01*
G54D11*
X48235Y349075D02*
X48235Y342408D01*
G54D11*
X36568Y353242D02*
X41902Y353242D01*
X41902Y347408D01*
X41235Y347408D01*
X39902Y348242D01*
X38568Y348242D01*
X37235Y347408D01*
X36568Y345742D01*
X36568Y342408D01*
X37235Y340742D01*
X38568Y339908D01*
X39902Y339908D01*
X41235Y340742D01*
X41902Y342408D01*
G54D11*
X182392Y461078D02*
X182392Y468578D01*
G54D11*
X182392Y471078D02*
X182392Y471078D01*
G54D11*
X178725Y461078D02*
X178725Y468578D01*
G54D11*
X178725Y466911D02*
X178058Y468078D01*
X176725Y468578D01*
X175392Y468078D01*
X174725Y466911D01*
X174725Y461078D01*
G54D11*
X171058Y474411D02*
X171058Y463578D01*
X170391Y461911D01*
X169058Y461078D01*
X167724Y461078D01*
X166391Y461911D01*
X165724Y463578D01*
X165724Y474411D01*
G54D11*
X162058Y461078D02*
X155391Y461078D01*
G54D11*
X151724Y461078D02*
X151724Y474411D01*
X147057Y474411D01*
G54D11*
X151724Y467744D02*
X147057Y467744D01*
G54D11*
X69904Y403823D02*
X67904Y402156D01*
X67237Y400489D01*
X67237Y397156D01*
G54D11*
X72570Y397156D02*
X72570Y410489D01*
X69237Y410489D01*
X67904Y409656D01*
X67237Y407989D01*
X67237Y406323D01*
X67904Y404656D01*
X69237Y403823D01*
X72570Y403823D01*
G54D11*
X63570Y404656D02*
X58237Y397156D01*
G54D11*
X63570Y397156D02*
X58237Y404656D01*
G54D11*
X54570Y397156D02*
X54570Y410489D01*
X49237Y397156D01*
X49237Y410489D01*
G54D10*
X97672Y238748D02*
X88784Y242082D01*
X97672Y245415D01*
G54D10*
X88784Y251860D02*
X88784Y248526D01*
X97672Y248526D01*
X97672Y251860D01*
X97117Y253193D01*
X96006Y253860D01*
X90450Y253860D01*
X89339Y253193D01*
X88784Y251860D01*
G54D10*
X94339Y256970D02*
X97672Y260304D01*
X88784Y260304D01*
X581600Y533044D02*
G54D12*
D03*
G54D10*
X556716Y561967D02*
X554716Y560856D01*
X554049Y559745D01*
X554049Y557522D01*
G54D10*
X559382Y557522D02*
X559382Y566411D01*
X556049Y566411D01*
X554716Y565856D01*
X554049Y564745D01*
X554049Y563634D01*
X554716Y562522D01*
X556049Y561967D01*
X559382Y561967D01*
G54D10*
X550938Y563078D02*
X547605Y566411D01*
X547605Y557522D01*
G54D10*
X539828Y565856D02*
X539161Y564745D01*
X539161Y559189D01*
X539828Y558078D01*
X541161Y557522D01*
X542494Y557522D01*
X543828Y558078D01*
X544494Y559189D01*
X544494Y564745D01*
X543828Y565856D01*
X542494Y566411D01*
X541161Y566411D01*
X539828Y565856D01*
G54D10*
X588111Y589648D02*
X586111Y588536D01*
X585445Y587425D01*
X585445Y585203D01*
G54D10*
X590778Y585203D02*
X590778Y594092D01*
X587445Y594092D01*
X586111Y593536D01*
X585445Y592425D01*
X585445Y591314D01*
X586111Y590203D01*
X587445Y589648D01*
X590778Y589648D01*
G54D10*
X582334Y590759D02*
X579001Y594092D01*
X579001Y585203D01*
G54D10*
X575890Y590759D02*
X572557Y594092D01*
X572557Y585203D01*
G54D11*
X70016Y371756D02*
X70016Y385089D01*
G54D11*
X72682Y385089D02*
X67349Y385089D01*
G54D11*
X63682Y379256D02*
X58349Y371756D01*
G54D11*
X63682Y371756D02*
X58349Y379256D01*
G54D11*
X54682Y371756D02*
X54682Y385089D01*
X49349Y371756D01*
X49349Y385089D01*
G54D13*
X258241Y395251D02*
X256241Y394140D01*
X255574Y393029D01*
X255574Y390806D01*
G54D13*
X260908Y390806D02*
X260908Y399695D01*
X257574Y399695D01*
X256241Y399140D01*
X255574Y398029D01*
X255574Y396918D01*
X256241Y395806D01*
X257574Y395251D01*
X260908Y395251D01*
G54D13*
X253131Y399695D02*
X247798Y399695D01*
X248464Y398584D01*
X249798Y396918D01*
X251131Y394695D01*
X251798Y393029D01*
X251798Y390806D01*
G54D10*
X316001Y448080D02*
X314001Y446968D01*
X313334Y445858D01*
X313334Y443635D01*
G54D10*
X318668Y443635D02*
X318668Y452524D01*
X315334Y452524D01*
X314001Y451968D01*
X313334Y450858D01*
X313334Y449746D01*
X314001Y448635D01*
X315334Y448080D01*
X318668Y448080D01*
G54D10*
X310224Y445302D02*
X309557Y444191D01*
X308224Y443635D01*
X306890Y443635D01*
X305557Y444191D01*
X304890Y445302D01*
X304890Y448080D01*
X304890Y448635D01*
X306890Y447524D01*
X308224Y447524D01*
X309557Y448080D01*
X310224Y449191D01*
X310224Y450858D01*
X309557Y451968D01*
X308224Y452524D01*
X306890Y452524D01*
X305557Y451968D01*
X304890Y450858D01*
X304890Y448080D01*
G54D10*
X403028Y466707D02*
X406361Y466707D01*
X406361Y475596D01*
X403028Y475596D01*
X401694Y475040D01*
X401028Y473929D01*
X401028Y468374D01*
X401694Y467262D01*
X403028Y466707D01*
G54D10*
X394584Y466707D02*
X397917Y466707D01*
X397917Y475596D01*
X394584Y475596D01*
X393250Y475040D01*
X392584Y473929D01*
X392584Y468374D01*
X393250Y467262D01*
X394584Y466707D01*
G54D10*
X389473Y473929D02*
X388806Y475040D01*
X387473Y475596D01*
X386140Y475596D01*
X384806Y475040D01*
X384140Y473929D01*
X384140Y472818D01*
X384806Y471707D01*
X386140Y471151D01*
X384806Y470596D01*
X384140Y469484D01*
X384140Y468374D01*
X384806Y467262D01*
X386140Y466707D01*
X387473Y466707D01*
X388806Y467262D01*
X389473Y468374D01*
G54D10*
X632971Y547443D02*
X631860Y546776D01*
X631304Y545443D01*
X631304Y544110D01*
X631860Y542776D01*
X632971Y542110D01*
X638526Y542110D01*
X639637Y542776D01*
X640193Y544110D01*
X640193Y545443D01*
X639637Y546776D01*
X638526Y547443D01*
G54D10*
X636304Y555220D02*
X635748Y553887D01*
X635748Y552554D01*
X636304Y551220D01*
X637415Y550554D01*
X638526Y550554D01*
X639637Y551220D01*
X640193Y552554D01*
X640193Y553887D01*
X639637Y555220D01*
X638526Y555887D01*
X637415Y555887D01*
X636304Y555220D01*
G54D10*
X635748Y553887D02*
X635193Y555220D01*
X634082Y555887D01*
X632971Y555887D01*
X631860Y555220D01*
X631304Y553887D01*
X631304Y552554D01*
X631860Y551220D01*
X632971Y550554D01*
X634082Y550554D01*
X635193Y551220D01*
X635748Y552554D01*
G54D10*
X529456Y417617D02*
X528345Y419617D01*
X527234Y420284D01*
X525011Y420284D01*
G54D10*
X525011Y414950D02*
X533900Y414950D01*
X533900Y418284D01*
X533345Y419617D01*
X532234Y420284D01*
X531122Y420284D01*
X530011Y419617D01*
X529456Y418284D01*
X529456Y414950D01*
G54D10*
X530567Y423394D02*
X533900Y426728D01*
X525011Y426728D01*
G54D10*
X532234Y429838D02*
X533345Y430505D01*
X533900Y431838D01*
X533900Y433172D01*
X533345Y434505D01*
X532234Y435172D01*
X531122Y435172D01*
X530011Y434505D01*
X529456Y433172D01*
X528900Y434505D01*
X527789Y435172D01*
X526678Y435172D01*
X525567Y434505D01*
X525011Y433172D01*
X525011Y431838D01*
X525567Y430505D01*
X526678Y429838D01*
G54D10*
X384831Y498754D02*
X375942Y502088D01*
X384831Y505421D01*
G54D10*
X375942Y511866D02*
X375942Y508532D01*
X384831Y508532D01*
X384831Y511866D01*
X384275Y513199D01*
X383164Y513866D01*
X377608Y513866D01*
X376497Y513199D01*
X375942Y511866D01*
G54D10*
X384831Y516976D02*
X384831Y522310D01*
X383720Y521643D01*
X382053Y520310D01*
X379831Y518976D01*
X378164Y518310D01*
X375942Y518310D01*
G54D10*
X270153Y572869D02*
X268153Y571758D01*
X267486Y570647D01*
X267486Y568425D01*
G54D10*
X272820Y568425D02*
X272820Y577314D01*
X269486Y577314D01*
X268153Y576758D01*
X267486Y575647D01*
X267486Y574536D01*
X268153Y573425D01*
X269486Y572869D01*
X272820Y572869D01*
G54D10*
X264376Y573980D02*
X261042Y577314D01*
X261042Y568425D01*
G54D10*
X252598Y577314D02*
X257932Y577314D01*
X257932Y573425D01*
X257265Y573425D01*
X255932Y573980D01*
X254598Y573980D01*
X253265Y573425D01*
X252598Y572314D01*
X252598Y570092D01*
X253265Y568980D01*
X254598Y568425D01*
X255932Y568425D01*
X257265Y568980D01*
X257932Y570092D01*
G54D10*
X319317Y571692D02*
X317317Y570580D01*
X316650Y569470D01*
X316650Y567247D01*
G54D10*
X321983Y567247D02*
X321983Y576136D01*
X318650Y576136D01*
X317317Y575580D01*
X316650Y574470D01*
X316650Y573358D01*
X317317Y572247D01*
X318650Y571692D01*
X321983Y571692D01*
G54D10*
X313539Y572803D02*
X310206Y576136D01*
X310206Y567247D01*
G54D10*
X301762Y574470D02*
X302429Y575580D01*
X303762Y576136D01*
X305095Y576136D01*
X306429Y575580D01*
X307095Y574470D01*
X307095Y571692D01*
X307095Y571136D01*
X305095Y572247D01*
X303762Y572247D01*
X302429Y571692D01*
X301762Y570580D01*
X301762Y568914D01*
X302429Y567803D01*
X303762Y567247D01*
X305095Y567247D01*
X306429Y567803D01*
X307095Y568914D01*
X307095Y571692D01*
G54D10*
X360451Y533172D02*
X359340Y535172D01*
X358229Y535839D01*
X356007Y535839D01*
G54D10*
X356007Y530505D02*
X364896Y530505D01*
X364896Y533839D01*
X364340Y535172D01*
X363229Y535839D01*
X362118Y535839D01*
X361007Y535172D01*
X360451Y533839D01*
X360451Y530505D01*
G54D10*
X361562Y538949D02*
X364896Y542283D01*
X356007Y542283D01*
G54D10*
X361007Y550060D02*
X360451Y548727D01*
X360451Y547393D01*
X361007Y546060D01*
X362118Y545393D01*
X363229Y545393D01*
X364340Y546060D01*
X364896Y547393D01*
X364896Y548727D01*
X364340Y550060D01*
X363229Y550727D01*
X362118Y550727D01*
X361007Y550060D01*
G54D10*
X360451Y548727D02*
X359896Y550060D01*
X358785Y550727D01*
X357674Y550727D01*
X356562Y550060D01*
X356007Y548727D01*
X356007Y547393D01*
X356562Y546060D01*
X357674Y545393D01*
X358785Y545393D01*
X359896Y546060D01*
X360451Y547393D01*
G54D10*
X308427Y524380D02*
X307316Y525047D01*
X306760Y526380D01*
X306760Y527714D01*
X307316Y529047D01*
X308427Y529714D01*
X313983Y529714D01*
X315094Y529047D01*
X315649Y527714D01*
X315649Y526380D01*
X315094Y525047D01*
X313983Y524380D01*
G54D10*
X308427Y521270D02*
X307316Y520603D01*
X306760Y519270D01*
X306760Y517936D01*
X307316Y516603D01*
X308427Y515936D01*
X311205Y515936D01*
X311760Y515936D01*
X310649Y517936D01*
X310649Y519270D01*
X311205Y520603D01*
X312316Y521270D01*
X313983Y521270D01*
X315094Y520603D01*
X315649Y519270D01*
X315649Y517936D01*
X315094Y516603D01*
X313983Y515936D01*
X311205Y515936D01*
G54D10*
X422986Y545065D02*
X414097Y548398D01*
X422986Y551732D01*
G54D10*
X414097Y558176D02*
X414097Y554843D01*
X422986Y554843D01*
X422986Y558176D01*
X422430Y559510D01*
X421319Y560176D01*
X415764Y560176D01*
X414653Y559510D01*
X414097Y558176D01*
G54D10*
X419097Y567954D02*
X418542Y566620D01*
X418542Y565287D01*
X419097Y563954D01*
X420208Y563287D01*
X421319Y563287D01*
X422430Y563954D01*
X422986Y565287D01*
X422986Y566620D01*
X422430Y567954D01*
X421319Y568620D01*
X420208Y568620D01*
X419097Y567954D01*
G54D10*
X418542Y566620D02*
X417986Y567954D01*
X416875Y568620D01*
X415764Y568620D01*
X414653Y567954D01*
X414097Y566620D01*
X414097Y565287D01*
X414653Y563954D01*
X415764Y563287D01*
X416875Y563287D01*
X417986Y563954D01*
X418542Y565287D01*
G54D10*
X400559Y607213D02*
X398559Y606102D01*
X397892Y604991D01*
X397892Y602768D01*
G54D10*
X403225Y602768D02*
X403225Y611658D01*
X399892Y611658D01*
X398559Y611102D01*
X397892Y609991D01*
X397892Y608880D01*
X398559Y607768D01*
X399892Y607213D01*
X403225Y607213D01*
G54D10*
X394781Y608324D02*
X391448Y611658D01*
X391448Y602768D01*
G54D10*
X388337Y611658D02*
X383004Y611658D01*
X383671Y610546D01*
X385004Y608880D01*
X386337Y606658D01*
X387004Y604991D01*
X387004Y602768D01*
G54D11*
X69237Y468078D02*
X70570Y468578D01*
X71903Y468078D01*
X72570Y466411D01*
X72570Y463078D01*
X71903Y461411D01*
X70570Y461078D01*
X69237Y461411D01*
G54D11*
X62237Y461411D02*
X61570Y463078D01*
X61570Y466411D01*
X62237Y468078D01*
X63570Y468578D01*
X64903Y468078D01*
X65570Y466411D01*
X65570Y463078D01*
X64903Y461411D01*
X63570Y461078D01*
X62237Y461411D01*
G54D11*
X53903Y468578D02*
X53903Y461078D01*
G54D11*
X53903Y462744D02*
X54570Y461411D01*
X55903Y461078D01*
X57236Y461411D01*
X57903Y462744D01*
X57903Y468578D01*
G54D11*
X50236Y461078D02*
X50236Y468578D01*
G54D11*
X50236Y466911D02*
X49569Y468078D01*
X48236Y468578D01*
X46903Y468078D01*
X46236Y466911D01*
X46236Y461078D01*
G54D11*
X41236Y474411D02*
X41236Y461911D01*
X40569Y461078D01*
X39902Y461411D01*
G54D11*
X42569Y468578D02*
X39902Y468578D01*
G54D11*
X72570Y426828D02*
X71237Y425994D01*
X70303Y425994D01*
X68970Y426828D01*
X68570Y428494D01*
X68570Y436828D01*
G54D11*
X68570Y434661D02*
X69237Y436328D01*
X70570Y436828D01*
X71903Y436328D01*
X72570Y434661D01*
X72570Y431328D01*
X71903Y429661D01*
X70570Y429328D01*
X69237Y429661D01*
X68570Y431328D01*
G54D11*
X64903Y429328D02*
X64903Y436828D01*
G54D11*
X64903Y435161D02*
X64236Y436328D01*
X62903Y436828D01*
X61570Y436328D01*
X60903Y435161D01*
X60903Y429328D01*
G54D11*
X53236Y429328D02*
X53236Y442661D01*
G54D11*
X53236Y434661D02*
X53903Y436328D01*
X55236Y436828D01*
X56569Y436328D01*
X57236Y434661D01*
X57236Y431328D01*
X56569Y429661D01*
X55236Y429328D01*
X53903Y429661D01*
X53236Y431328D01*
G54D11*
X166503Y312528D02*
X165170Y311694D01*
X164236Y311694D01*
X162903Y312528D01*
X162503Y314194D01*
X162503Y322528D01*
G54D11*
X162503Y320361D02*
X163170Y322028D01*
X164503Y322528D01*
X165836Y322028D01*
X166503Y320361D01*
X166503Y317028D01*
X165836Y315361D01*
X164503Y315028D01*
X163170Y315361D01*
X162503Y317028D01*
G54D11*
X158836Y315028D02*
X158836Y322528D01*
G54D11*
X158836Y320861D02*
X158169Y322028D01*
X156836Y322528D01*
X155503Y322028D01*
X154836Y320861D01*
X154836Y315028D01*
G54D11*
X147169Y315028D02*
X147169Y328361D01*
G54D11*
X147169Y320361D02*
X147836Y322028D01*
X149169Y322528D01*
X150502Y322028D01*
X151169Y320361D01*
X151169Y317028D01*
X150502Y315361D01*
X149169Y315028D01*
X147836Y315361D01*
X147169Y317028D01*
G54D11*
X166503Y337928D02*
X165170Y337094D01*
X164236Y337094D01*
X162903Y337928D01*
X162503Y339594D01*
X162503Y347928D01*
G54D11*
X162503Y345761D02*
X163170Y347428D01*
X164503Y347928D01*
X165836Y347428D01*
X166503Y345761D01*
X166503Y342428D01*
X165836Y340761D01*
X164503Y340428D01*
X163170Y340761D01*
X162503Y342428D01*
G54D11*
X158836Y340428D02*
X158836Y347928D01*
G54D11*
X158836Y346261D02*
X158169Y347428D01*
X156836Y347928D01*
X155503Y347428D01*
X154836Y346261D01*
X154836Y340428D01*
G54D11*
X147169Y340428D02*
X147169Y353761D01*
G54D11*
X147169Y345761D02*
X147836Y347428D01*
X149169Y347928D01*
X150502Y347428D01*
X151169Y345761D01*
X151169Y342428D01*
X150502Y340761D01*
X149169Y340428D01*
X147836Y340761D01*
X147169Y342428D01*
G54D11*
X168837Y366161D02*
X168170Y367828D01*
X168170Y371161D01*
X168837Y372828D01*
X170170Y373328D01*
X171503Y372828D01*
X172170Y371161D01*
X172170Y367828D01*
X171503Y366161D01*
X170170Y365828D01*
X168837Y366161D01*
G54D11*
X160503Y373328D02*
X160503Y365828D01*
G54D11*
X160503Y367494D02*
X161170Y366161D01*
X162503Y365828D01*
X163836Y366161D01*
X164503Y367494D01*
X164503Y373328D01*
G54D11*
X155503Y379161D02*
X155503Y366661D01*
X154836Y365828D01*
X154169Y366161D01*
G54D11*
X156836Y373328D02*
X154169Y373328D01*
G54D11*
X150502Y374161D02*
X147169Y379161D01*
X147169Y365828D01*
G54D11*
X170837Y397911D02*
X170170Y399578D01*
X170170Y402911D01*
X170837Y404578D01*
X172170Y405078D01*
X173503Y404578D01*
X174170Y402911D01*
X174170Y399578D01*
X173503Y397911D01*
X172170Y397578D01*
X170837Y397911D01*
G54D11*
X162503Y405078D02*
X162503Y397578D01*
G54D11*
X162503Y399244D02*
X163170Y397911D01*
X164503Y397578D01*
X165836Y397911D01*
X166503Y399244D01*
X166503Y405078D01*
G54D11*
X157503Y410911D02*
X157503Y398411D01*
X156836Y397578D01*
X156169Y397911D01*
G54D11*
X158836Y405078D02*
X156169Y405078D01*
G54D11*
X147169Y397578D02*
X152502Y397578D01*
X152502Y398411D01*
X151835Y400078D01*
X147835Y405078D01*
X147169Y406744D01*
X147169Y408411D01*
X147835Y410078D01*
X149169Y410911D01*
X150502Y410911D01*
X151835Y410078D01*
X152502Y408411D01*
G54D11*
X72570Y505739D02*
X72570Y492406D01*
X67904Y492406D01*
G54D11*
X64236Y505739D02*
X64236Y492406D01*
X59570Y492406D01*
G54D11*
X55902Y494906D02*
X55236Y493239D01*
X53902Y492406D01*
X52569Y492406D01*
X51236Y493239D01*
X50569Y494906D01*
X50569Y496573D01*
X51236Y498239D01*
X52569Y499073D01*
X53902Y499073D01*
X55236Y499906D01*
X55902Y501573D01*
X55902Y503239D01*
X55236Y504906D01*
X53902Y505739D01*
X52569Y505739D01*
X51236Y504906D01*
X50569Y503239D01*
G54D11*
X41102Y505739D02*
X42436Y504906D01*
X43102Y503239D01*
X43102Y494906D01*
X42436Y493239D01*
X41102Y492406D01*
G54D11*
X34102Y492406D02*
X37435Y492406D01*
X37435Y505739D01*
X34102Y505739D01*
X32769Y504906D01*
X32102Y503239D01*
X32102Y501573D01*
X32769Y499906D01*
X34102Y499073D01*
X32769Y498239D01*
X32102Y496573D01*
X32102Y494906D01*
X32769Y493239D01*
X34102Y492406D01*
G54D11*
X37435Y499073D02*
X34102Y499073D01*
G54D11*
X28435Y505739D02*
X27102Y504906D01*
X26435Y503239D01*
X26435Y494906D01*
X27102Y493239D01*
X28435Y492406D01*
G54D11*
X72570Y531139D02*
X72570Y517806D01*
X67904Y517806D01*
G54D11*
X64236Y531139D02*
X64236Y517806D01*
X59570Y517806D01*
G54D11*
X55902Y520306D02*
X55236Y518639D01*
X53902Y517806D01*
X52569Y517806D01*
X51236Y518639D01*
X50569Y520306D01*
X50569Y521973D01*
X51236Y523639D01*
X52569Y524473D01*
X53902Y524473D01*
X55236Y525306D01*
X55902Y526973D01*
X55902Y528639D01*
X55236Y530306D01*
X53902Y531139D01*
X52569Y531139D01*
X51236Y530306D01*
X50569Y528639D01*
G54D11*
X41102Y531139D02*
X42436Y530306D01*
X43102Y528639D01*
X43102Y520306D01*
X42436Y518639D01*
X41102Y517806D01*
G54D11*
X37435Y517806D02*
X34102Y531139D01*
X30769Y517806D01*
G54D11*
X36102Y522806D02*
X32102Y522806D01*
G54D11*
X27101Y531139D02*
X25768Y530306D01*
X25101Y528639D01*
X25101Y520306D01*
X25768Y518639D01*
X27101Y517806D01*
G54D11*
X194638Y492406D02*
X194638Y505739D01*
X191305Y497406D01*
X187972Y505739D01*
X187972Y492406D01*
G54D11*
X180971Y492739D02*
X180304Y494406D01*
X180304Y497739D01*
X180971Y499406D01*
X182304Y499906D01*
X183638Y499406D01*
X184304Y497739D01*
X184304Y494406D01*
X183638Y492739D01*
X182304Y492406D01*
X180971Y492739D01*
G54D11*
X172637Y492406D02*
X172637Y505739D01*
G54D11*
X172637Y497739D02*
X173304Y499406D01*
X174637Y499906D01*
X175971Y499406D01*
X176637Y497739D01*
X176637Y494406D01*
X175971Y492739D01*
X174637Y492406D01*
X173304Y492739D01*
X172637Y494406D01*
G54D11*
X163170Y505739D02*
X164504Y504906D01*
X165170Y503239D01*
X165170Y494906D01*
X164504Y493239D01*
X163170Y492406D01*
G54D11*
X159503Y492406D02*
X156170Y505739D01*
X152837Y492406D01*
G54D11*
X158170Y497406D02*
X154170Y497406D01*
G54D11*
X149169Y505739D02*
X147836Y504906D01*
X147169Y503239D01*
X147169Y494906D01*
X147836Y493239D01*
X149169Y492406D01*
G54D11*
X194638Y517806D02*
X194638Y531139D01*
X191305Y522806D01*
X187972Y531139D01*
X187972Y517806D01*
G54D11*
X180971Y518139D02*
X180304Y519806D01*
X180304Y523139D01*
X180971Y524806D01*
X182304Y525306D01*
X183638Y524806D01*
X184304Y523139D01*
X184304Y519806D01*
X183638Y518139D01*
X182304Y517806D01*
X180971Y518139D01*
G54D11*
X172637Y517806D02*
X172637Y531139D01*
G54D11*
X172637Y523139D02*
X173304Y524806D01*
X174637Y525306D01*
X175971Y524806D01*
X176637Y523139D01*
X176637Y519806D01*
X175971Y518139D01*
X174637Y517806D01*
X173304Y518139D01*
X172637Y519806D01*
G54D11*
X163170Y531139D02*
X164504Y530306D01*
X165170Y528639D01*
X165170Y520306D01*
X164504Y518639D01*
X163170Y517806D01*
G54D11*
X156170Y517806D02*
X159503Y517806D01*
X159503Y531139D01*
X156170Y531139D01*
X154837Y530306D01*
X154170Y528639D01*
X154170Y526973D01*
X154837Y525306D01*
X156170Y524473D01*
X154837Y523639D01*
X154170Y521973D01*
X154170Y520306D01*
X154837Y518639D01*
X156170Y517806D01*
G54D11*
X159503Y524473D02*
X156170Y524473D01*
G54D11*
X150503Y531139D02*
X149170Y530306D01*
X148503Y528639D01*
X148503Y520306D01*
X149170Y518639D01*
X150503Y517806D01*
G54D11*
X166503Y426828D02*
X165170Y425994D01*
X164236Y425994D01*
X162903Y426828D01*
X162503Y428494D01*
X162503Y436828D01*
G54D11*
X162503Y434661D02*
X163170Y436328D01*
X164503Y436828D01*
X165836Y436328D01*
X166503Y434661D01*
X166503Y431328D01*
X165836Y429661D01*
X164503Y429328D01*
X163170Y429661D01*
X162503Y431328D01*
G54D11*
X158836Y429328D02*
X158836Y436828D01*
G54D11*
X158836Y435161D02*
X158169Y436328D01*
X156836Y436828D01*
X155503Y436328D01*
X154836Y435161D01*
X154836Y429328D01*
G54D11*
X147169Y429328D02*
X147169Y442661D01*
G54D11*
X147169Y434661D02*
X147836Y436328D01*
X149169Y436828D01*
X150502Y436328D01*
X151169Y434661D01*
X151169Y431328D01*
X150502Y429661D01*
X149169Y429328D01*
X147836Y429661D01*
X147169Y431328D01*
G54D10*
X593754Y558594D02*
X591754Y557482D01*
X591088Y556371D01*
X591088Y554149D01*
G54D10*
X596421Y554149D02*
X596421Y563038D01*
X593088Y563038D01*
X591754Y562482D01*
X591088Y561371D01*
X591088Y560260D01*
X591754Y559149D01*
X593088Y558594D01*
X596421Y558594D01*
G54D10*
X587977Y559705D02*
X584644Y563038D01*
X584644Y554149D01*
G54D10*
X576200Y554149D02*
X581533Y554149D01*
X581533Y554705D01*
X580866Y555816D01*
X576866Y559149D01*
X576200Y560260D01*
X576200Y561371D01*
X576866Y562482D01*
X578200Y563038D01*
X579533Y563038D01*
X580866Y562482D01*
X581533Y561371D01*
G54D10*
X580962Y493923D02*
X584296Y493923D01*
X584296Y502812D01*
X580962Y502812D01*
X579629Y502256D01*
X578962Y501145D01*
X578962Y495590D01*
X579629Y494479D01*
X580962Y493923D01*
G54D10*
X572518Y493923D02*
X575852Y493923D01*
X575852Y502812D01*
X572518Y502812D01*
X571185Y502256D01*
X570518Y501145D01*
X570518Y495590D01*
X571185Y494479D01*
X572518Y493923D01*
G54D10*
X562074Y493923D02*
X567408Y493923D01*
X567408Y494479D01*
X566741Y495590D01*
X562741Y498923D01*
X562074Y500034D01*
X562074Y501145D01*
X562741Y502256D01*
X564074Y502812D01*
X565408Y502812D01*
X566741Y502256D01*
X567408Y501145D01*
G54D10*
X261279Y449068D02*
X261946Y447957D01*
X263279Y447402D01*
X264612Y447402D01*
X265946Y447957D01*
X266612Y449068D01*
X266612Y454624D01*
X265945Y455735D01*
X264612Y456290D01*
X263279Y456290D01*
X261946Y455735D01*
X261279Y454624D01*
G54D10*
X258168Y452957D02*
X254835Y456290D01*
X254835Y447402D01*
G54D10*
X247058Y455735D02*
X246391Y454624D01*
X246391Y449068D01*
X247058Y447957D01*
X248391Y447402D01*
X249724Y447402D01*
X251058Y447957D01*
X251724Y449068D01*
X251724Y454624D01*
X251058Y455735D01*
X249724Y456290D01*
X248391Y456290D01*
X247058Y455735D01*
M02*
