%FSLAX34Y34*%
%MOMM*%
%LNCOPPER_TOP*%
G71*
G01*
%ADD10C, 0.00*%
%ADD11C, 2.30*%
%ADD12C, 2.10*%
%ADD13C, 0.40*%
%ADD14R, 2.00X1.30*%
%ADD15R, 1.27X0.65*%
%ADD16C, 0.30*%
%ADD17C, 0.80*%
%ADD18C, 0.80*%
%ADD19C, 0.60*%
%ADD20C, 2.00*%
%ADD21C, 0.15*%
%ADD22R, 1.05X0.90*%
%ADD23R, 1.10X1.40*%
%ADD24R, 1.40X1.10*%
%LPD*%
G36*
X347847Y177616D02*
X307847Y177616D01*
X307847Y197616D01*
X347847Y197616D01*
X347847Y177616D01*
G37*
G54D10*
X347847Y177616D02*
X307847Y177616D01*
X307847Y197616D01*
X347847Y197616D01*
X347847Y177616D01*
G36*
X112897Y177616D02*
X72897Y177616D01*
X72897Y197616D01*
X112897Y197616D01*
X112897Y177616D01*
G37*
G54D10*
X112897Y177616D02*
X72897Y177616D01*
X72897Y197616D01*
X112897Y197616D01*
X112897Y177616D01*
G36*
X347847Y52522D02*
X307847Y52522D01*
X307847Y72522D01*
X347847Y72522D01*
X347847Y52522D01*
G37*
G54D10*
X347847Y52522D02*
X307847Y52522D01*
X307847Y72522D01*
X347847Y72522D01*
X347847Y52522D01*
G36*
X112897Y52522D02*
X72897Y52522D01*
X72897Y72522D01*
X112897Y72522D01*
X112897Y52522D01*
G37*
G54D10*
X112897Y52522D02*
X72897Y52522D01*
X72897Y72522D01*
X112897Y72522D01*
X112897Y52522D01*
X309398Y62647D02*
G54D11*
D03*
X112817Y187496D02*
G54D11*
D03*
X309667Y187496D02*
G54D11*
D03*
G36*
X112897Y71572D02*
X72897Y71572D01*
X72897Y91572D01*
X112897Y91572D01*
X112897Y71572D01*
G37*
G54D10*
X112897Y71572D02*
X72897Y71572D01*
X72897Y91572D01*
X112897Y91572D01*
X112897Y71572D01*
X112548Y62647D02*
G54D11*
D03*
X97310Y527600D02*
G54D12*
D03*
X127310Y527600D02*
G54D12*
D03*
X97310Y497600D02*
G54D12*
D03*
X127310Y497600D02*
G54D12*
D03*
X97310Y467600D02*
G54D12*
D03*
X127310Y467600D02*
G54D12*
D03*
X97310Y437600D02*
G54D12*
D03*
X127310Y437600D02*
G54D12*
D03*
X97310Y407600D02*
G54D12*
D03*
X127310Y407600D02*
G54D12*
D03*
X97310Y377600D02*
G54D12*
D03*
X127310Y377600D02*
G54D12*
D03*
X97310Y347600D02*
G54D12*
D03*
X127310Y347600D02*
G54D12*
D03*
X97310Y317600D02*
G54D12*
D03*
X127310Y317600D02*
G54D12*
D03*
G36*
X403550Y181300D02*
X416250Y181300D01*
X416250Y155900D01*
X416250Y143200D01*
X403550Y143200D01*
X403550Y181300D01*
G37*
G54D10*
X403550Y181300D02*
X416250Y181300D01*
X416250Y155900D01*
X416250Y143200D01*
X403550Y143200D01*
X403550Y181300D01*
G54D13*
X403550Y143200D02*
X403550Y181300D01*
X428950Y181300D01*
X428950Y143200D01*
X403550Y143200D01*
X403550Y181300D01*
X416250Y181300D01*
X416250Y155900D01*
X416250Y143200D01*
X403550Y143200D01*
X821887Y632913D02*
G54D11*
D03*
X821887Y382913D02*
G54D11*
D03*
X796487Y632913D02*
G54D11*
D03*
X796487Y382913D02*
G54D11*
D03*
X771087Y632913D02*
G54D11*
D03*
X771087Y382913D02*
G54D11*
D03*
X745687Y632913D02*
G54D11*
D03*
X745687Y382913D02*
G54D11*
D03*
X720287Y632913D02*
G54D11*
D03*
X720287Y382913D02*
G54D11*
D03*
X694887Y632913D02*
G54D11*
D03*
X694887Y382913D02*
G54D11*
D03*
X669487Y632913D02*
G54D11*
D03*
X669487Y382913D02*
G54D11*
D03*
X644087Y632913D02*
G54D11*
D03*
X644087Y382913D02*
G54D11*
D03*
X618687Y632913D02*
G54D11*
D03*
X618687Y382913D02*
G54D11*
D03*
X593287Y632913D02*
G54D11*
D03*
X593288Y382913D02*
G54D11*
D03*
X567887Y632913D02*
G54D11*
D03*
X567887Y382913D02*
G54D11*
D03*
X542487Y632913D02*
G54D11*
D03*
X542487Y382913D02*
G54D11*
D03*
X517087Y632913D02*
G54D11*
D03*
X517087Y382913D02*
G54D11*
D03*
X491687Y632913D02*
G54D11*
D03*
X491687Y382913D02*
G54D11*
D03*
X466287Y632913D02*
G54D11*
D03*
X466287Y382913D02*
G54D11*
D03*
X229470Y289284D02*
G54D14*
D03*
X229370Y326884D02*
G54D14*
D03*
X260051Y285710D02*
G54D14*
D03*
X260151Y248110D02*
G54D14*
D03*
X359600Y293800D02*
G54D15*
D03*
X359600Y281100D02*
G54D15*
D03*
X359600Y268400D02*
G54D15*
D03*
X359600Y255700D02*
G54D15*
D03*
X308800Y255700D02*
G54D15*
D03*
X308800Y268400D02*
G54D15*
D03*
X308800Y281100D02*
G54D15*
D03*
X308800Y293800D02*
G54D15*
D03*
G54D16*
X359101Y268771D02*
X378151Y268771D01*
G54D16*
X360161Y294008D02*
X376654Y294180D01*
G54D17*
X353250Y255700D02*
X344600Y255700D01*
X340610Y251598D01*
X340050Y346400D02*
G54D18*
D03*
G54D19*
X222411Y324001D02*
X222411Y330361D01*
X232100Y340050D01*
X295600Y340050D01*
X308300Y327350D01*
X308300Y281600D01*
X308800Y281100D01*
G54D17*
X309667Y187496D02*
X340050Y213050D01*
X340050Y276550D01*
X344611Y281110D01*
X359600Y281100D01*
G54D16*
X424228Y254826D02*
X423724Y233572D01*
X411773Y221274D01*
X378881Y221274D01*
X348273Y221274D01*
X340050Y213050D01*
G54D16*
X402118Y270200D02*
X701651Y269851D01*
X771850Y340050D01*
X771850Y382150D01*
X771087Y382913D01*
G54D16*
X400792Y295727D02*
X701651Y295251D01*
X746450Y340050D01*
X746450Y382150D01*
X745687Y382913D01*
G54D17*
X340050Y346400D02*
X340050Y276550D01*
G54D19*
X328717Y187496D02*
X384654Y187496D01*
X409900Y162250D01*
G54D19*
X334798Y62647D02*
X380022Y62522D01*
X409900Y92400D01*
X384500Y117800D01*
X257500Y117800D01*
X73350Y301950D01*
X73350Y323640D01*
X97310Y347600D01*
G54D19*
X260611Y286401D02*
X114299Y286401D01*
X98750Y301950D01*
X98750Y316160D01*
X97310Y317600D01*
G54D19*
X308800Y255700D02*
X308800Y258000D01*
X323500Y273085D01*
X323500Y354096D01*
X270220Y407436D01*
X127310Y407600D01*
G54D16*
X359600Y293800D02*
X359600Y314523D01*
X359044Y315079D01*
G54D16*
X378552Y269851D02*
X378552Y238852D01*
X378150Y238450D01*
G54D19*
X295600Y340050D02*
X251150Y384500D01*
X134210Y384500D01*
X127310Y377600D01*
G54D16*
X740100Y562300D02*
X784550Y562300D01*
X740100Y562300D02*
G54D18*
D03*
X784550Y562300D02*
G54D18*
D03*
G54D16*
X343399Y487832D02*
X345131Y486100D01*
X343399Y487832D01*
X368799Y463701D01*
X368799Y451001D01*
X373173Y447992D01*
X498800Y448000D01*
X542271Y404406D01*
X542316Y383157D01*
X368799Y451001D02*
G54D18*
D03*
G54D16*
X422600Y460700D02*
X613100Y460700D01*
X644850Y428950D01*
X644087Y382913D01*
X643898Y351798D01*
X625800Y333700D01*
X485400Y333700D01*
X422600Y460700D02*
G54D18*
D03*
G54D16*
X422856Y333510D02*
X353099Y333351D01*
X340050Y346400D01*
X335597Y350853D01*
X335597Y462597D01*
X333700Y467050D01*
X333700Y467050D02*
G54D18*
D03*
X841022Y751306D02*
G54D20*
D03*
X841022Y725906D02*
G54D20*
D03*
X841022Y700506D02*
G54D20*
D03*
X841022Y776706D02*
G54D20*
D03*
X433213Y739453D02*
G54D20*
D03*
X433213Y690325D02*
G54D20*
D03*
X432499Y789296D02*
G54D20*
D03*
G36*
X870159Y785949D02*
X870159Y766899D01*
X832059Y766899D01*
X832059Y785949D01*
X870159Y785949D01*
G37*
G54D10*
X870159Y785949D02*
X870159Y766899D01*
X832059Y766899D01*
X832059Y785949D01*
X870159Y785949D01*
G54D21*
X832059Y785949D02*
X870159Y785949D01*
X870159Y766899D01*
X832059Y766899D01*
X832059Y785949D01*
G36*
X870159Y761025D02*
X870159Y741975D01*
X832059Y741975D01*
X832059Y761025D01*
X870159Y761025D01*
G37*
G54D10*
X870159Y761025D02*
X870159Y741975D01*
X832059Y741975D01*
X832059Y761025D01*
X870159Y761025D01*
G54D21*
X832059Y761025D02*
X870159Y761025D01*
X870159Y741975D01*
X832059Y741975D01*
X832059Y761025D01*
G36*
X870159Y735387D02*
X870159Y716337D01*
X832059Y716337D01*
X832059Y735387D01*
X870159Y735387D01*
G37*
G54D10*
X870159Y735387D02*
X870159Y716337D01*
X832059Y716337D01*
X832059Y735387D01*
X870159Y735387D01*
G54D21*
X832059Y735387D02*
X870159Y735387D01*
X870159Y716337D01*
X832059Y716337D01*
X832059Y735387D01*
G36*
X870159Y709987D02*
X870159Y690937D01*
X832059Y690937D01*
X832059Y709987D01*
X870159Y709987D01*
G37*
G54D10*
X870159Y709987D02*
X870159Y690937D01*
X832059Y690937D01*
X832059Y709987D01*
X870159Y709987D01*
G54D21*
X832059Y709987D02*
X870159Y709987D01*
X870159Y690937D01*
X832059Y690937D01*
X832059Y709987D01*
G36*
X445947Y798649D02*
X445947Y779599D01*
X407847Y779599D01*
X407847Y798649D01*
X445947Y798649D01*
G37*
G54D10*
X445947Y798649D02*
X445947Y779599D01*
X407847Y779599D01*
X407847Y798649D01*
X445947Y798649D01*
G54D21*
X407847Y798649D02*
X445947Y798649D01*
X445947Y779599D01*
X407847Y779599D01*
X407847Y798649D01*
G36*
X445947Y748861D02*
X445947Y729811D01*
X407847Y729811D01*
X407847Y748861D01*
X445947Y748861D01*
G37*
G54D10*
X445947Y748861D02*
X445947Y729811D01*
X407847Y729811D01*
X407847Y748861D01*
X445947Y748861D01*
G54D21*
X407847Y748861D02*
X445947Y748861D01*
X445947Y729811D01*
X407847Y729811D01*
X407847Y748861D01*
G36*
X445947Y700086D02*
X445947Y681036D01*
X407847Y681036D01*
X407847Y700086D01*
X445947Y700086D01*
G37*
G54D10*
X445947Y700086D02*
X445947Y681036D01*
X407847Y681036D01*
X407847Y700086D01*
X445947Y700086D01*
G54D21*
X407847Y700086D02*
X445947Y700086D01*
X445947Y681036D01*
X407847Y681036D01*
X407847Y700086D01*
X1014976Y218174D02*
G54D20*
D03*
X989576Y218174D02*
G54D20*
D03*
X964176Y218174D02*
G54D20*
D03*
X1040376Y218174D02*
G54D20*
D03*
X1003124Y625983D02*
G54D20*
D03*
X953995Y625983D02*
G54D20*
D03*
X1052966Y626697D02*
G54D20*
D03*
G36*
X1049619Y189037D02*
X1030569Y189037D01*
X1030569Y227137D01*
X1049619Y227137D01*
X1049619Y189037D01*
G37*
G54D10*
X1049619Y189037D02*
X1030569Y189037D01*
X1030569Y227137D01*
X1049619Y227137D01*
X1049619Y189037D01*
G54D21*
X1049619Y227137D02*
X1049619Y189037D01*
X1030569Y189037D01*
X1030569Y227137D01*
X1049619Y227137D01*
G36*
X1024695Y189037D02*
X1005645Y189037D01*
X1005645Y227137D01*
X1024695Y227137D01*
X1024695Y189037D01*
G37*
G54D10*
X1024695Y189037D02*
X1005645Y189037D01*
X1005645Y227137D01*
X1024695Y227137D01*
X1024695Y189037D01*
G54D21*
X1024695Y227137D02*
X1024695Y189037D01*
X1005645Y189037D01*
X1005645Y227137D01*
X1024695Y227137D01*
G36*
X999057Y189036D02*
X980007Y189036D01*
X980007Y227136D01*
X999057Y227136D01*
X999057Y189036D01*
G37*
G54D10*
X999057Y189036D02*
X980007Y189036D01*
X980007Y227136D01*
X999057Y227136D01*
X999057Y189036D01*
G54D21*
X999057Y227136D02*
X999057Y189036D01*
X980007Y189036D01*
X980007Y227136D01*
X999057Y227136D01*
G36*
X973657Y189036D02*
X954607Y189036D01*
X954607Y227136D01*
X973657Y227136D01*
X973657Y189036D01*
G37*
G54D10*
X973657Y189036D02*
X954607Y189036D01*
X954607Y227136D01*
X973657Y227136D01*
X973657Y189036D01*
G54D21*
X973657Y227136D02*
X973657Y189036D01*
X954607Y189036D01*
X954607Y227136D01*
X973657Y227136D01*
G36*
X1062319Y613249D02*
X1043269Y613249D01*
X1043269Y651349D01*
X1062319Y651349D01*
X1062319Y613249D01*
G37*
G54D10*
X1062319Y613249D02*
X1043269Y613249D01*
X1043269Y651349D01*
X1062319Y651349D01*
X1062319Y613249D01*
G54D21*
X1062319Y651349D02*
X1062319Y613249D01*
X1043269Y613249D01*
X1043269Y651349D01*
X1062319Y651349D01*
G36*
X1012532Y613249D02*
X993482Y613249D01*
X993481Y651349D01*
X1012531Y651349D01*
X1012532Y613249D01*
G37*
G54D10*
X1012532Y613249D02*
X993482Y613249D01*
X993481Y651349D01*
X1012531Y651349D01*
X1012532Y613249D01*
G54D21*
X1012531Y651349D02*
X1012532Y613249D01*
X993482Y613249D01*
X993481Y651349D01*
X1012531Y651349D01*
G36*
X963756Y613249D02*
X944706Y613249D01*
X944706Y651349D01*
X963756Y651349D01*
X963756Y613249D01*
G37*
G54D10*
X963756Y613249D02*
X944706Y613249D01*
X944706Y651349D01*
X963756Y651349D01*
X963756Y613249D01*
G54D21*
X963756Y651349D02*
X963756Y613249D01*
X944706Y613249D01*
X944706Y651349D01*
X963756Y651349D01*
G54D16*
X694887Y632913D02*
X694887Y669487D01*
X702000Y676600D01*
X740100Y676600D01*
X814389Y750872D01*
X841022Y751306D01*
G54D16*
X127310Y497600D02*
X142000Y497600D01*
X340050Y695650D01*
X359100Y695650D01*
X414186Y695844D01*
G54D16*
X127310Y527600D02*
X127310Y533710D01*
X333700Y740100D01*
X413516Y740100D01*
G54D16*
X953995Y625983D02*
X953995Y754805D01*
X892500Y816300D01*
X403550Y816300D01*
X386131Y816494D01*
X97310Y527600D01*
G54D16*
X1003124Y625983D02*
X1003124Y642176D01*
X968700Y676600D01*
X968700Y765500D01*
X905200Y829000D01*
X365450Y829000D01*
X79700Y543250D01*
X79700Y505150D01*
X86050Y498800D01*
X96110Y498800D01*
G54D16*
X720287Y382913D02*
X720287Y402787D01*
X752800Y435300D01*
X956000Y435300D01*
X989545Y401756D01*
X989576Y218174D01*
G54D16*
X694887Y382913D02*
X694887Y390087D01*
X750702Y444853D01*
X957748Y445202D01*
X1014975Y388120D01*
X1014976Y218174D01*
X892500Y282900D02*
G54D12*
D03*
X892500Y257500D02*
G54D12*
D03*
X892500Y232100D02*
G54D12*
D03*
X892500Y206700D02*
G54D12*
D03*
G54D16*
X491687Y632913D02*
X491687Y569413D01*
X511500Y549600D01*
X892500Y549600D01*
X917900Y524200D01*
X917900Y463115D01*
G54D16*
X930600Y460700D02*
X930600Y549600D01*
X905200Y575000D01*
X587700Y575000D01*
X568650Y594050D01*
X568650Y632150D01*
X567887Y632913D01*
G54D16*
X728641Y506811D02*
X390850Y505150D01*
X390850Y505150D02*
G54D18*
D03*
X343399Y487832D02*
G54D18*
D03*
G54D16*
X428950Y505150D02*
X422600Y511500D01*
X422600Y575000D01*
X422600Y536900D02*
G54D18*
D03*
G54D16*
X369064Y556775D02*
X369064Y572264D01*
X448000Y651200D01*
X625800Y651200D01*
X644087Y632913D01*
X369064Y556775D02*
G54D18*
D03*
X728641Y506811D02*
G54D18*
D03*
X461040Y257771D02*
G54D22*
D03*
X485740Y257771D02*
G54D22*
D03*
G54D16*
X498440Y269687D02*
X485740Y256987D01*
G54D16*
X461040Y257771D02*
X445942Y257771D01*
X445593Y258120D01*
X461040Y333700D02*
G54D22*
D03*
X485740Y333700D02*
G54D22*
D03*
G54D16*
X444198Y333351D02*
X460351Y333351D01*
X460700Y333700D01*
X461040Y283171D02*
G54D22*
D03*
X485740Y283171D02*
G54D22*
D03*
G54D16*
X498440Y295087D02*
X485740Y282387D01*
G54D16*
X460715Y280898D02*
X445829Y280986D01*
G54D16*
X424354Y280986D02*
X359714Y280986D01*
X359600Y281100D01*
X409900Y79700D02*
G54D18*
D03*
X409900Y92400D02*
G54D18*
D03*
X409900Y105100D02*
G54D18*
D03*
G36*
X403550Y111450D02*
X416250Y111450D01*
X416250Y86050D01*
X416250Y73350D01*
X403550Y73350D01*
X403550Y111450D01*
G37*
G54D10*
X403550Y111450D02*
X416250Y111450D01*
X416250Y86050D01*
X416250Y73350D01*
X403550Y73350D01*
X403550Y111450D01*
G54D13*
X403550Y73350D02*
X403550Y111450D01*
X428950Y111450D01*
X428950Y73350D01*
X403550Y73350D01*
X403550Y111450D01*
X416250Y111450D01*
X416250Y86050D01*
X416250Y73350D01*
X403550Y73350D01*
G36*
X403550Y181300D02*
X428950Y181300D01*
X428950Y143200D01*
X403550Y143200D01*
X403550Y181300D01*
G37*
G54D10*
X403550Y181300D02*
X428950Y181300D01*
X428950Y143200D01*
X403550Y143200D01*
X403550Y181300D01*
G36*
X403550Y111450D02*
X428950Y111450D01*
X428950Y73350D01*
X403550Y73350D01*
X403550Y111450D01*
G37*
G54D10*
X403550Y111450D02*
X428950Y111450D01*
X428950Y73350D01*
X403550Y73350D01*
X403550Y111450D01*
G54D19*
X268089Y251398D02*
X308481Y251398D01*
X308434Y266796D01*
G54D16*
X708350Y663900D02*
X752800Y663900D01*
X815602Y725658D01*
X841022Y725906D01*
X708350Y663900D02*
G54D18*
D03*
G54D16*
X422600Y428950D02*
X340050Y428950D01*
X335601Y424290D01*
X422600Y428950D02*
G54D18*
D03*
G54D19*
X892500Y257500D02*
X796259Y329029D01*
X796487Y382913D01*
G54D19*
X892500Y282900D02*
X822313Y333700D01*
X821887Y382913D01*
X930600Y463115D02*
G54D18*
D03*
G54D16*
X930600Y422600D02*
X930600Y232100D01*
X905200Y206700D01*
X892500Y206700D01*
X930600Y422600D02*
G54D18*
D03*
X917900Y463115D02*
G54D18*
D03*
X917900Y422600D02*
G54D18*
D03*
G54D16*
X892500Y232100D02*
X905200Y232100D01*
X917900Y244800D01*
X917900Y422600D01*
X409900Y149550D02*
G54D18*
D03*
X409900Y162250D02*
G54D18*
D03*
X409900Y174950D02*
G54D18*
D03*
X422600Y575000D02*
G54D18*
D03*
G54D19*
X841022Y776706D02*
X893784Y776915D01*
X917900Y752800D01*
X917900Y613100D01*
X1040194Y489041D01*
X1040376Y218174D01*
X1040276Y179708D01*
X1016482Y155900D01*
X416250Y155900D01*
X422600Y333700D02*
G54D23*
D03*
X443200Y333700D02*
G54D23*
D03*
X380719Y299108D02*
G54D23*
D03*
X401319Y299108D02*
G54D23*
D03*
X380719Y265977D02*
G54D23*
D03*
X401319Y265977D02*
G54D23*
D03*
X340256Y318938D02*
G54D23*
D03*
X360856Y318938D02*
G54D23*
D03*
X379490Y238808D02*
G54D24*
D03*
X379490Y218208D02*
G54D24*
D03*
X421806Y282701D02*
G54D23*
D03*
X442406Y282701D02*
G54D23*
D03*
X421806Y254826D02*
G54D23*
D03*
X442406Y254826D02*
G54D23*
D03*
M02*
