M48
INCH
T01C0.0157
T02C0.0433
T03C0.126
%
G05
G90
T01
X016140Y003140
X016140Y003640
X016140Y004140
X016140Y005890
X016140Y006390
X016140Y006890
X013390Y013640
X014520Y017760
X013140Y018390
X013520Y019210
X015390Y019890
X016640Y021140
X016640Y022640
X014530Y021920
X016640Y018140
X016640Y016890
X028690Y019950
X029140Y022140
X030890Y022140
X027890Y026140
X036140Y018230
X036640Y018230
X036640Y016640
X036140Y016640
T02
X004430Y002470
X004440Y007380
X005010Y012500
X005010Y013690
X005010Y014870
X005010Y016050
X005010Y017230
X005010Y018410
X005010Y019590
X005010Y020770
X003830Y020770
X003830Y019590
X003830Y018410
X003830Y017230
X003830Y016050
X003830Y014870
X003830Y013690
X003830Y012500
X012190Y007380
X012180Y002470
X018360Y015080
X019360Y015080
X020360Y015080
X021360Y015080
X022360Y015080
X023360Y015080
X024360Y015080
X025360Y015080
X026360Y015080
X027360Y015080
X028360Y015080
X029360Y015080
X030360Y015080
X031360Y015080
X032360Y015080
X035140Y011140
X035140Y010140
X035140Y009140
X035140Y008140
X037960Y008590
X038960Y008590
X039960Y008590
X040960Y008590
X041460Y024670
X039490Y024640
X037560Y024640
X032360Y024920
X031360Y024920
X030360Y024920
X029360Y024920
X028360Y024920
X027360Y024920
X026360Y024920
X025360Y024920
X024360Y024920
X023360Y024920
X022360Y024920
X021360Y024920
X020360Y024920
X019360Y024920
X018360Y024920
X017060Y027180
X017060Y029110
X017030Y031070
X033110Y030580
X033110Y029580
X033110Y028580
X033110Y027580
T03
X021140Y001640
X040140Y003140
X040140Y030140
X003640Y030140
M30
