%FSLAX34Y34*%
%MOMM*%
%LNCOPPER_BOTTOM*%
G71*
G01*
%ADD10C, 2.30*%
%ADD11C, 2.10*%
%ADD12C, 0.80*%
%ADD13C, 2.00*%
%ADD14C, 0.00*%
%ADD15C, 0.01*%
%ADD16R, 2.00X1.30*%
%ADD17R, 3.60X1.80*%
%ADD18R, 1.43X0.80*%
%ADD19C, 0.30*%
%ADD20R, 0.60X0.80*%
%ADD21R, 1.30X1.80*%
%ADD22R, 1.00X0.70*%
%ADD23C, 0.60*%
%ADD24C, 0.80*%
%ADD25R, 0.80X1.43*%
%ADD26C, 3.30*%
%LPD*%
X309398Y62647D02*
G54D10*
D03*
X112817Y187496D02*
G54D10*
D03*
X309667Y187496D02*
G54D10*
D03*
X112548Y62647D02*
G54D10*
D03*
X97310Y527600D02*
G54D11*
D03*
X127310Y527600D02*
G54D11*
D03*
X97310Y497600D02*
G54D11*
D03*
X127310Y497600D02*
G54D11*
D03*
X97310Y467600D02*
G54D11*
D03*
X127310Y467600D02*
G54D11*
D03*
X97310Y437600D02*
G54D11*
D03*
X127310Y437600D02*
G54D11*
D03*
X97310Y407600D02*
G54D11*
D03*
X127310Y407600D02*
G54D11*
D03*
X97310Y377600D02*
G54D11*
D03*
X127310Y377600D02*
G54D11*
D03*
X97310Y347600D02*
G54D11*
D03*
X127310Y347600D02*
G54D11*
D03*
X97310Y317600D02*
G54D11*
D03*
X127310Y317600D02*
G54D11*
D03*
X821887Y632913D02*
G54D10*
D03*
X821887Y382913D02*
G54D10*
D03*
X796487Y632913D02*
G54D10*
D03*
X796487Y382913D02*
G54D10*
D03*
X771087Y632913D02*
G54D10*
D03*
X771087Y382913D02*
G54D10*
D03*
X745687Y632913D02*
G54D10*
D03*
X745687Y382913D02*
G54D10*
D03*
X720287Y632913D02*
G54D10*
D03*
X720287Y382913D02*
G54D10*
D03*
X694887Y632913D02*
G54D10*
D03*
X694887Y382913D02*
G54D10*
D03*
X669487Y632913D02*
G54D10*
D03*
X669487Y382913D02*
G54D10*
D03*
X644087Y632913D02*
G54D10*
D03*
X644087Y382913D02*
G54D10*
D03*
X618687Y632913D02*
G54D10*
D03*
X618687Y382913D02*
G54D10*
D03*
X593287Y632913D02*
G54D10*
D03*
X593288Y382913D02*
G54D10*
D03*
X567887Y632913D02*
G54D10*
D03*
X567887Y382913D02*
G54D10*
D03*
X542487Y632913D02*
G54D10*
D03*
X542487Y382913D02*
G54D10*
D03*
X517087Y632913D02*
G54D10*
D03*
X517087Y382913D02*
G54D10*
D03*
X491687Y632913D02*
G54D10*
D03*
X491687Y382913D02*
G54D10*
D03*
X466287Y632913D02*
G54D10*
D03*
X466287Y382913D02*
G54D10*
D03*
X340050Y346400D02*
G54D12*
D03*
X740100Y562300D02*
G54D12*
D03*
X784550Y562300D02*
G54D12*
D03*
X368799Y451001D02*
G54D12*
D03*
X422600Y460700D02*
G54D12*
D03*
X333700Y467050D02*
G54D12*
D03*
X841022Y751306D02*
G54D13*
D03*
X841022Y725906D02*
G54D13*
D03*
X841022Y700506D02*
G54D13*
D03*
X841022Y776706D02*
G54D13*
D03*
X433213Y739453D02*
G54D13*
D03*
X433213Y690325D02*
G54D13*
D03*
X432499Y789296D02*
G54D13*
D03*
X1014976Y218174D02*
G54D13*
D03*
X989576Y218174D02*
G54D13*
D03*
X964176Y218174D02*
G54D13*
D03*
X1040376Y218174D02*
G54D13*
D03*
X1003124Y625983D02*
G54D13*
D03*
X953995Y625983D02*
G54D13*
D03*
X1052966Y626697D02*
G54D13*
D03*
X892500Y282900D02*
G54D11*
D03*
X892500Y257500D02*
G54D11*
D03*
X892500Y232100D02*
G54D11*
D03*
X892500Y206700D02*
G54D11*
D03*
X390850Y505150D02*
G54D12*
D03*
X343399Y487832D02*
G54D12*
D03*
X422600Y536900D02*
G54D12*
D03*
X369064Y556775D02*
G54D12*
D03*
X728641Y506811D02*
G54D12*
D03*
X409900Y79700D02*
G54D12*
D03*
X409900Y92400D02*
G54D12*
D03*
X409900Y105100D02*
G54D12*
D03*
X708350Y663900D02*
G54D12*
D03*
X422600Y428950D02*
G54D12*
D03*
X930600Y463115D02*
G54D12*
D03*
X930600Y422600D02*
G54D12*
D03*
X917900Y463115D02*
G54D12*
D03*
X917900Y422600D02*
G54D12*
D03*
X409900Y149550D02*
G54D12*
D03*
X409900Y162250D02*
G54D12*
D03*
X409900Y174950D02*
G54D12*
D03*
X422600Y575000D02*
G54D12*
D03*
G36*
X173092Y163046D02*
X173092Y151046D01*
X136092Y151046D01*
X136092Y163046D01*
X173092Y163046D01*
G37*
G54D14*
X173092Y163046D02*
X173092Y151046D01*
X136092Y151046D01*
X136092Y163046D01*
X173092Y163046D01*
G54D15*
X136092Y163046D02*
X173092Y163046D01*
X173092Y151046D01*
X136092Y151046D01*
X136092Y163046D01*
G36*
X173092Y115046D02*
X173092Y103046D01*
X136092Y103046D01*
X136092Y115046D01*
X173092Y115046D01*
G37*
G54D14*
X173092Y115046D02*
X173092Y103046D01*
X136092Y103046D01*
X136092Y115046D01*
X173092Y115046D01*
G54D15*
X136092Y115046D02*
X173092Y115046D01*
X173092Y103046D01*
X136092Y103046D01*
X136092Y115046D01*
X257500Y117800D02*
G54D16*
D03*
X257400Y155400D02*
G54D16*
D03*
X216932Y110726D02*
G54D17*
D03*
X216932Y156026D02*
G54D17*
D03*
G36*
X419650Y423552D02*
X410650Y423552D01*
X410650Y415552D01*
X419650Y415552D01*
X419650Y423552D01*
G37*
G54D14*
X419650Y423552D02*
X410650Y423552D01*
X410650Y415552D01*
X419650Y415552D01*
X419650Y423552D01*
G54D15*
X419650Y415552D02*
X419650Y423552D01*
X410650Y423552D01*
X410650Y415552D01*
X419650Y415552D01*
G36*
X419650Y404552D02*
X410651Y404552D01*
X410651Y396552D01*
X419650Y396552D01*
X419650Y404552D01*
G37*
G54D14*
X419650Y404552D02*
X410651Y404552D01*
X410651Y396552D01*
X419650Y396552D01*
X419650Y404552D01*
G54D15*
X419650Y396552D02*
X419650Y404552D01*
X410651Y404552D01*
X410651Y396552D01*
X419650Y396552D01*
G36*
X398651Y414052D02*
X389650Y414052D01*
X389651Y406052D01*
X398650Y406052D01*
X398651Y414052D01*
G37*
G54D14*
X398651Y414052D02*
X389650Y414052D01*
X389651Y406052D01*
X398650Y406052D01*
X398651Y414052D01*
G54D15*
X398650Y406052D02*
X398651Y414052D01*
X389650Y414052D01*
X389651Y406052D01*
X398650Y406052D01*
X310798Y405270D02*
G54D18*
D03*
X310792Y383966D02*
G54D18*
D03*
X68450Y271010D02*
G54D17*
D03*
X68450Y225710D02*
G54D17*
D03*
G36*
X546000Y533844D02*
X546000Y531844D01*
X555000Y531844D01*
X555000Y533844D01*
X546000Y533844D01*
G37*
G54D14*
X546000Y533844D02*
X546000Y531844D01*
X555000Y531844D01*
X555000Y533844D01*
X546000Y533844D01*
G54D14*
X555000Y533844D02*
X546000Y533844D01*
X546000Y531844D01*
X555000Y531844D01*
X555000Y533844D01*
G36*
X546000Y528844D02*
X546000Y526844D01*
X555000Y526844D01*
X555000Y528844D01*
X546000Y528844D01*
G37*
G54D14*
X546000Y528844D02*
X546000Y526844D01*
X555000Y526844D01*
X555000Y528844D01*
X546000Y528844D01*
G54D14*
X555000Y528844D02*
X546000Y528844D01*
X546000Y526844D01*
X555000Y526844D01*
X555000Y528844D01*
G36*
X546000Y523844D02*
X546000Y521844D01*
X555000Y521844D01*
X555000Y523844D01*
X546000Y523844D01*
G37*
G54D14*
X546000Y523844D02*
X546000Y521844D01*
X555000Y521844D01*
X555000Y523844D01*
X546000Y523844D01*
G54D14*
X555000Y523844D02*
X546000Y523844D01*
X546000Y521844D01*
X555000Y521844D01*
X555000Y523844D01*
G36*
X546000Y518844D02*
X546000Y516844D01*
X555000Y516844D01*
X555000Y518844D01*
X546000Y518844D01*
G37*
G54D14*
X546000Y518844D02*
X546000Y516844D01*
X555000Y516844D01*
X555000Y518844D01*
X546000Y518844D01*
G54D14*
X555000Y518844D02*
X546000Y518844D01*
X546000Y516844D01*
X555000Y516844D01*
X555000Y518844D01*
G36*
X546000Y513844D02*
X546000Y511844D01*
X555000Y511844D01*
X555000Y513844D01*
X546000Y513844D01*
G37*
G54D14*
X546000Y513844D02*
X546000Y511844D01*
X555000Y511844D01*
X555000Y513844D01*
X546000Y513844D01*
G54D14*
X555000Y513844D02*
X546000Y513844D01*
X546000Y511844D01*
X555000Y511844D01*
X555000Y513844D01*
G36*
X590000Y513844D02*
X590000Y511844D01*
X599000Y511844D01*
X599000Y513844D01*
X590000Y513844D01*
G37*
G54D14*
X590000Y513844D02*
X590000Y511844D01*
X599000Y511844D01*
X599000Y513844D01*
X590000Y513844D01*
G54D14*
X599000Y513844D02*
X590000Y513844D01*
X590000Y511844D01*
X599000Y511844D01*
X599000Y513844D01*
G36*
X590000Y518844D02*
X590000Y516844D01*
X599000Y516844D01*
X599000Y518844D01*
X590000Y518844D01*
G37*
G54D14*
X590000Y518844D02*
X590000Y516844D01*
X599000Y516844D01*
X599000Y518844D01*
X590000Y518844D01*
G54D14*
X599000Y518844D02*
X590000Y518844D01*
X590000Y516844D01*
X599000Y516844D01*
X599000Y518844D01*
G36*
X590000Y523844D02*
X590000Y521844D01*
X599000Y521844D01*
X599000Y523844D01*
X590000Y523844D01*
G37*
G54D14*
X590000Y523844D02*
X590000Y521844D01*
X599000Y521844D01*
X599000Y523844D01*
X590000Y523844D01*
G54D14*
X599000Y523844D02*
X590000Y523844D01*
X590000Y521844D01*
X599000Y521844D01*
X599000Y523844D01*
G36*
X590000Y528844D02*
X590000Y526844D01*
X599000Y526844D01*
X599000Y528844D01*
X590000Y528844D01*
G37*
G54D14*
X590000Y528844D02*
X590000Y526844D01*
X599000Y526844D01*
X599000Y528844D01*
X590000Y528844D01*
G54D14*
X599000Y528844D02*
X590000Y528844D01*
X590000Y526844D01*
X599000Y526844D01*
X599000Y528844D01*
G36*
X590000Y533844D02*
X590000Y531844D01*
X599000Y531844D01*
X599000Y533844D01*
X590000Y533844D01*
G37*
G54D14*
X590000Y533844D02*
X590000Y531844D01*
X599000Y531844D01*
X599000Y533844D01*
X590000Y533844D01*
G54D14*
X599000Y533844D02*
X590000Y533844D01*
X590000Y531844D01*
X599000Y531844D01*
X599000Y533844D01*
G54D19*
X550317Y527979D02*
X566079Y527979D01*
X568650Y530550D01*
X568650Y632150D01*
G54D19*
X551886Y533136D02*
X558536Y533136D01*
X562300Y536900D01*
X562300Y568650D01*
X555950Y575000D01*
X511500Y575000D01*
X491687Y594813D01*
X491687Y632913D01*
X559116Y549740D02*
G54D20*
D03*
X543216Y549740D02*
G54D20*
D03*
X587780Y577879D02*
G54D20*
D03*
X571880Y577879D02*
G54D20*
D03*
G54D19*
X540738Y553777D02*
X540799Y522424D01*
X570831Y522444D01*
X576222Y527930D01*
X576198Y545502D01*
X581250Y549330D01*
G54D19*
X595775Y549732D02*
X595724Y542456D01*
X584931Y536109D01*
X585019Y527709D01*
X592978Y527710D01*
G54D19*
X594101Y522678D02*
X602367Y522678D01*
X605019Y525566D01*
X605019Y531076D01*
X603081Y533015D01*
X592979Y533015D01*
G36*
X239982Y417868D02*
X247982Y417868D01*
X247982Y403568D01*
X239982Y403568D01*
X239982Y417868D01*
G37*
G54D14*
X239982Y417868D02*
X247982Y417868D01*
X247982Y403568D01*
X239982Y403568D01*
X239982Y417868D01*
G36*
X261284Y417874D02*
X269284Y417875D01*
X269285Y403575D01*
X261285Y403574D01*
X261284Y417874D01*
G37*
G54D14*
X261284Y417874D02*
X269284Y417875D01*
X269285Y403575D01*
X261285Y403574D01*
X261284Y417874D01*
X295600Y435300D02*
G54D21*
D03*
X328100Y435400D02*
G54D21*
D03*
G54D19*
X243982Y410718D02*
X243982Y434482D01*
X244800Y435300D01*
X212500Y467600D01*
X127310Y467600D01*
G54D19*
X328342Y437354D02*
X384315Y437354D01*
X408115Y437354D02*
G54D22*
D03*
X408115Y456354D02*
G54D22*
D03*
X384315Y437354D02*
G54D22*
D03*
X384315Y456354D02*
G54D22*
D03*
X384315Y446854D02*
G54D22*
D03*
G54D23*
X409900Y79700D02*
X626212Y80029D01*
X816300Y270200D01*
X816300Y377326D01*
X821887Y382913D01*
G54D23*
X409900Y162250D02*
X682796Y162096D01*
X797250Y276550D01*
X797250Y382150D01*
X796487Y382913D01*
G54D23*
X97310Y317600D02*
X96908Y298378D01*
X68450Y271010D01*
G54D24*
X127310Y347600D02*
X127310Y286090D01*
X232100Y187650D01*
X265063Y187650D01*
X309667Y187496D01*
G54D23*
X127310Y347600D02*
X131700Y347600D01*
X155900Y371800D01*
X155900Y422600D01*
X143200Y435300D01*
X129610Y435300D01*
X97511Y434783D01*
G54D19*
X265284Y410725D02*
X397201Y410724D01*
X397200Y473400D01*
X546025Y473372D01*
X545999Y512408D01*
G54D19*
X310792Y383966D02*
X335597Y383969D01*
X335597Y350853D01*
X340050Y346400D01*
G54D19*
X603081Y533015D02*
X729865Y533015D01*
X797250Y600400D01*
X797250Y632150D01*
X796487Y632913D01*
G54D19*
X549600Y517850D02*
X594050Y517850D01*
G54D19*
X599000Y513497D02*
X599000Y521844D01*
G54D19*
X580518Y549943D02*
X580518Y555118D01*
X587700Y562300D01*
X740100Y562300D01*
G54D19*
X408115Y437354D02*
X552615Y437354D01*
X660726Y438477D01*
X784550Y562300D01*
X822650Y600400D01*
X822650Y632150D01*
X821887Y632913D01*
X618850Y538400D02*
G54D18*
D03*
X618884Y559700D02*
G54D18*
D03*
G54D19*
X587780Y577879D02*
X587780Y568570D01*
X594050Y562300D01*
G54D19*
X384543Y447992D02*
X373173Y447992D01*
X368799Y451001D01*
G54D19*
X422600Y460700D02*
X412461Y460700D01*
X408115Y456354D01*
G54D19*
X384315Y456354D02*
X384315Y460885D01*
X378150Y467050D01*
X333700Y467050D01*
X318285Y482229D01*
X318462Y506548D01*
X296687Y506682D01*
X544164Y434689D02*
G54D18*
D03*
X544170Y413386D02*
G54D18*
D03*
G54D19*
X542487Y382913D02*
X542487Y411704D01*
X544170Y413386D01*
G54D19*
X466287Y632913D02*
X112213Y632913D01*
X67000Y587700D01*
X67000Y437910D01*
X97310Y407600D01*
G54D19*
X97310Y377600D02*
X97310Y379590D01*
X54300Y422600D01*
X54300Y587700D01*
X117800Y651200D01*
X575000Y651200D01*
X593287Y632913D01*
G54D23*
X964176Y218174D02*
X962350Y448000D01*
X930702Y479750D01*
X930600Y562300D01*
X917900Y575000D01*
X841700Y575000D01*
X821887Y594813D01*
X821887Y632913D01*
X821887Y681372D01*
X841022Y700506D01*
G36*
X370300Y523339D02*
X361300Y523339D01*
X361300Y515339D01*
X370300Y515339D01*
X370300Y523339D01*
G37*
G54D14*
X370300Y523339D02*
X361300Y523339D01*
X361300Y515339D01*
X370300Y515339D01*
X370300Y523339D01*
G54D15*
X370300Y515339D02*
X370300Y523339D01*
X361300Y523339D01*
X361300Y515339D01*
X370300Y515339D01*
G36*
X370300Y504339D02*
X361300Y504339D01*
X361300Y496339D01*
X370300Y496339D01*
X370300Y504339D01*
G37*
G54D14*
X370300Y504339D02*
X361300Y504339D01*
X361300Y496339D01*
X370300Y496339D01*
X370300Y504339D01*
G54D15*
X370300Y496339D02*
X370300Y504339D01*
X361300Y504339D01*
X361300Y496339D01*
X370300Y496339D01*
G36*
X349300Y513839D02*
X340300Y513839D01*
X340300Y505839D01*
X349300Y505839D01*
X349300Y513839D01*
G37*
G54D14*
X349300Y513839D02*
X340300Y513839D01*
X340300Y505839D01*
X349300Y505839D01*
X349300Y513839D01*
G54D15*
X349300Y505839D02*
X349300Y513839D01*
X340300Y513839D01*
X340300Y505839D01*
X349300Y505839D01*
G54D19*
X368300Y501161D02*
X386861Y501161D01*
X390850Y505150D01*
G54D19*
X343399Y487832D02*
X343548Y510438D01*
G36*
X247150Y563100D02*
X255150Y563100D01*
X255150Y548800D01*
X247150Y548800D01*
X247150Y563100D01*
G37*
G54D14*
X247150Y563100D02*
X255150Y563100D01*
X255150Y548800D01*
X247150Y548800D01*
X247150Y563100D01*
G36*
X268453Y563106D02*
X276453Y563106D01*
X276453Y548806D01*
X268453Y548806D01*
X268453Y563106D01*
G37*
G54D14*
X268453Y563106D02*
X276453Y563106D01*
X276453Y548806D01*
X268453Y548806D01*
X268453Y563106D01*
G36*
X297132Y563918D02*
X305132Y563918D01*
X305132Y549618D01*
X297132Y549618D01*
X297132Y563918D01*
G37*
G54D14*
X297132Y563918D02*
X305132Y563918D01*
X305132Y549618D01*
X297132Y549618D01*
X297132Y563918D01*
G36*
X318434Y563924D02*
X326434Y563925D01*
X326435Y549625D01*
X318435Y549624D01*
X318434Y563924D01*
G37*
G54D14*
X318434Y563924D02*
X326434Y563925D01*
X326435Y549625D01*
X318435Y549624D01*
X318434Y563924D01*
X343833Y527006D02*
G54D18*
D03*
X343827Y548308D02*
G54D18*
D03*
X296714Y510969D02*
G54D18*
D03*
X296748Y532268D02*
G54D18*
D03*
G36*
X408400Y561439D02*
X399400Y561439D01*
X399400Y553439D01*
X408400Y553439D01*
X408400Y561439D01*
G37*
G54D14*
X408400Y561439D02*
X399400Y561439D01*
X399400Y553439D01*
X408400Y553439D01*
X408400Y561439D01*
G54D15*
X408400Y553439D02*
X408400Y561439D01*
X399400Y561439D01*
X399400Y553439D01*
X408400Y553439D01*
G36*
X408400Y542439D02*
X399400Y542439D01*
X399400Y534439D01*
X408400Y534439D01*
X408400Y542439D01*
G37*
G54D14*
X408400Y542439D02*
X399400Y542439D01*
X399400Y534439D01*
X408400Y534439D01*
X408400Y542439D01*
G54D15*
X408400Y534439D02*
X408400Y542439D01*
X399400Y542439D01*
X399400Y534439D01*
X408400Y534439D01*
G36*
X387400Y551939D02*
X378400Y551939D01*
X378400Y543939D01*
X387400Y543939D01*
X387400Y551939D01*
G37*
G54D14*
X387400Y551939D02*
X378400Y551939D01*
X378400Y543939D01*
X387400Y543939D01*
X387400Y551939D01*
G54D15*
X387400Y543939D02*
X387400Y551939D01*
X378400Y551939D01*
X378400Y543939D01*
X387400Y543939D01*
G54D19*
X97310Y467600D02*
X99300Y467600D01*
X78494Y488317D01*
X78522Y546966D01*
X87872Y555909D01*
X251150Y555950D01*
G54D19*
X422600Y536900D02*
X403550Y536900D01*
G54D19*
X272453Y555956D02*
X300320Y555956D01*
X301132Y556768D01*
G54D19*
X322434Y556775D02*
X369064Y556775D01*
X380400Y545439D01*
X406272Y589588D02*
G54D25*
D03*
X384969Y589582D02*
G54D25*
D03*
G54D19*
X406272Y589588D02*
X408011Y589588D01*
X422600Y575000D01*
G54D19*
X384969Y589582D02*
X384969Y588170D01*
X369064Y572264D01*
X369064Y556775D01*
G54D19*
X416249Y401537D02*
X428949Y401537D01*
X435299Y407887D01*
X435299Y426937D01*
X445341Y436778D01*
X594454Y545794D02*
G54D20*
D03*
X578554Y545794D02*
G54D20*
D03*
G54D19*
X669487Y632913D02*
X669179Y656264D01*
X676600Y663900D01*
X708350Y663900D01*
G54D19*
X422600Y428950D02*
X422600Y425586D01*
X416176Y419162D01*
G54D19*
X930600Y463115D02*
X930600Y422600D01*
G54D19*
X917900Y463115D02*
X917900Y422600D01*
G54D23*
X161258Y110605D02*
X112548Y62647D01*
G54D23*
X220686Y152810D02*
X220686Y175615D01*
X231273Y188492D01*
G54D23*
X257400Y155400D02*
X257400Y168500D01*
X276550Y187650D01*
G54D23*
X257500Y117800D02*
X161652Y117800D01*
X153092Y110046D01*
G54D24*
X112817Y187496D02*
X112817Y189017D01*
X169787Y246080D01*
G54D24*
X67782Y226662D02*
X67000Y168600D01*
X79700Y155900D01*
X143200Y155900D01*
G54D19*
X368300Y521839D02*
X426589Y521839D01*
X435300Y530550D01*
X435300Y549600D01*
X428950Y555950D01*
X407411Y555950D01*
X406400Y554939D01*
G54D19*
X296748Y532268D02*
X296748Y542102D01*
X282900Y555950D01*
G54D19*
X318462Y506548D02*
X318462Y508962D01*
X333700Y524200D01*
X359100Y524200D01*
X365450Y517850D01*
X243493Y435902D02*
G54D25*
D03*
X264793Y435868D02*
G54D25*
D03*
G54D19*
X264793Y435868D02*
X295032Y435868D01*
X295600Y435300D01*
X92400Y765500D02*
G54D26*
D03*
X1019500Y765500D02*
G54D26*
D03*
X1019500Y79700D02*
G54D26*
D03*
X536900Y41600D02*
G54D26*
D03*
G54D19*
X343827Y548308D02*
X343827Y553377D01*
X346400Y555950D01*
M02*
