%FSLAX34Y34*%
%MOMM*%
%LNSMDMASK_BOTTOM*%
G71*
G01*
%ADD10R, 2.40X1.70*%
%ADD11R, 4.00X2.20*%
%ADD12R, 1.83X1.20*%
%ADD13R, 1.00X1.20*%
%ADD14R, 1.70X2.20*%
%ADD15R, 1.40X1.10*%
%ADD16R, 1.20X1.83*%
%LPD*%
X257500Y117800D02*
G54D10*
D03*
X257400Y155400D02*
G54D10*
D03*
X216932Y110726D02*
G54D11*
D03*
X216932Y156026D02*
G54D11*
D03*
X310798Y405270D02*
G54D12*
D03*
X310792Y383966D02*
G54D12*
D03*
X68450Y271010D02*
G54D11*
D03*
X68450Y225710D02*
G54D11*
D03*
X559116Y549740D02*
G54D13*
D03*
X543216Y549740D02*
G54D13*
D03*
X587780Y577879D02*
G54D13*
D03*
X571880Y577879D02*
G54D13*
D03*
X295600Y435300D02*
G54D14*
D03*
X328100Y435400D02*
G54D14*
D03*
X408115Y437354D02*
G54D15*
D03*
X408115Y456354D02*
G54D15*
D03*
X384315Y437354D02*
G54D15*
D03*
X384315Y456354D02*
G54D15*
D03*
X384315Y446854D02*
G54D15*
D03*
X618850Y538400D02*
G54D12*
D03*
X618884Y559700D02*
G54D12*
D03*
X544164Y434689D02*
G54D12*
D03*
X544170Y413386D02*
G54D12*
D03*
X343833Y527006D02*
G54D12*
D03*
X343827Y548308D02*
G54D12*
D03*
X296714Y510969D02*
G54D12*
D03*
X296748Y532268D02*
G54D12*
D03*
X406272Y589588D02*
G54D16*
D03*
X384969Y589582D02*
G54D16*
D03*
X594454Y545794D02*
G54D13*
D03*
X578554Y545794D02*
G54D13*
D03*
X243493Y435902D02*
G54D16*
D03*
X264793Y435868D02*
G54D16*
D03*
M02*
